<svg xmlns="http://www.w3.org/2000/svg" xml:space="preserve" id="calendar" x="0" y="0" version="1.1" viewBox="0 0 512 512">
  <g fill-rule="evenodd" clip-rule="evenodd">
    <path d="M473.13 500.08l-126.573-.016c4.22-1.182 77.087-2.25 80.135-2.318 15.855-.468 103.022-2.31 66.906-1.795-45.093.647-88.457-.37-117.235-.764-45.251-.616-87.87 1.114-136.8 1.237l-227.73-.325a1.079 1.079 0 0 1-1.084-1.073v-.01c.49-132.897 1.008-272.785 1.624-439.41l-.54.54 116.657.052 372.922-.642.052.05c.392 74.899.784 150.432 1.174 224.754l1.918 119.585c.8 42.587 1.437 78.802 1.74 80.701-.462-2.536 3.202-32.63 2.953-33.512-.19-.561.472 17.768.792 13.512 3.214-40.657.834-99.48.325-153.296.169-67.338.345-138.495.522-209.91-.08-14.055-.161-28.07-.242-41.834v-.102a9.183 9.183 0 0 0-9.234-9.133c-166.439.902-327.876-.036-489.58-.759-5.495-.026-9.97 4.41-9.993 9.905v.089c-.117 28.112-.232 56.253-.348 84.425C1.148 243.489.729 368.587.308 495.015c-.02 6.346 5.106 11.503 11.449 11.527h.075c130.168.228 262.473-1.216 372.428-3.77 8.798-.211 108.203-1.897 105.911-3.023l-17.04.33zm-130.848.07c2.41.369-6.337 1.268-7.75 1.05-2.402-.38 6.345-1.274 7.75-1.05zm-43.6-.063c2.384.39-6.424 1.315-7.82 1.086-2.38-.395 6.432-1.317 7.82-1.086z"></path>
    <path d="M202.35 485.276c2.263.434-6.46 1.326-7.785 1.07-2.258-.438 6.465-1.33 7.785-1.07zM117.946 485.362c8.962-.125 17.277-.242 25.184-.35 47.197-.24-4.69 2.403-25.184.35zM117.946 485.362c-36.123-.008-71.547-.016-106.114-.02l9.677 9.673c-.611-128.476-2.414-246.9.509-352.524.104-3.778.291-11.859.948-4.58 2.477 27.517-.906 79.71-1.174 112.157-.61 74.029.527 164.329.657 244.947l-10.617-10.614c38.623-.063 74.777.171 106.114.961zM506.356 493.729c.297-1.66-.467 2.588 0 0zM23.84 129.052c-1.206 5.831-2.144-68.304-.58-34.226.01.32.268 7.364.561 15.495.245 8.174.398 16.887.018 18.731z"></path>
    <path d="M24.063 81.683c-.403 1.939-.85-11.474-1.156-26.077L11.832 66.68c23.42-.493 49.897-.629 20.995.359-.68.02-10.513.332-20.995.662l12.096-12.095c.314 11.61.543 24.095.135 26.077zM50.244 67.766c.637-.033 17.553-.873 35.453-1.761 17.981-.827 36.931-1.455 41.258-.562-2.19-.452-65.366 4.667-76.71 2.323zM140.098 66.244c-1.92-.398 3 .62 0 0zM187.456 66.467c-5.07-1.05 57.074-1.655 17.113-.29-2.39.082-15.481.625-17.113.29zM230.559 66.758c7.61 1.577 42.78-3.59 51.035-1.886-3.822-.79-37.467 4.692-51.035 1.886zM501.94 486.95c.327-1.876 1.007 7.99.815 9.076-.317 1.85-1-8.003-.816-9.076zM290.756 66.766c-4.766-.985 89.432-2.037 25.675-.434-8.396.208-23.178.948-25.675.434zM346.676 66.841c-4.755-.984 89.435-2.037 25.675-.436-8.403.213-23.178.953-25.675.436zM398.333 66.992c-5.046-1.045 93.987-2.398 47.062-.798-1.432.05-43.302 1.575-47.062.798zM471.374 66.779c.938.192 14.057-.515 30.038-1.294l-9.877-9.88c1.156 23.26 2.497 52.933 1.289 58.642.543-2.573-1.775-33.876-2.77-58.641l11.358 11.36c-13.808.543-25.73.704-30.038-.187zM491.122 131.49c-.421 1.85 4.662 74.928 2.702 84.383.767-3.744-5.259-72.472-2.702-84.383zM495.253 368.75c-1.213 6.595 3.225 44.439 1.874 51.665.66-3.396-4.067-39.862-1.874-51.664z"></path>
    <path d="M106.965 7.135c-.156.834-1.005 6.447-.956 6.457-1.32-.25-2.307-4.025-2.398-4.186-.447-.824-2.796-5.405-2.175-3.52.769 2.353-.655 4.541-1.102 6.015-.707 2.32 1.255 4.57 1.3 7.09.233 12.473-2.313 24.397-2.095 40.463.13 9.552.278 20.44 1.92 30.851.457 2.884 4.498 9.973 5.374 10.136-.595-.111 3.884-1.803 3.497-1.832-.262-.02.878.876 1.237.647 3.396-2.177-.626-5.027-1.518-7.75-1.12-3.41.089-7.034-.423-10.66-1.533-10.845.11-21.267.844-31.78.757-10.76 2.726-26.052-.964-37.306-.148-.45-1.2-5.566-2.832-5.511-.073.003.302.813.291.886zm-.883 6.678c.444-.112 1.424.361 1.161.426-.444.112-1.424-.361-1.161-.426zm-.296 2.224c.449-.112 1.429.361 1.166.426-.447.115-1.426-.358-1.166-.426zM89.912 20.727c.447-.111 1.424.359 1.161.426-.447.112-1.424-.36-1.161-.426zM90.343 25.163c-.106-.473-.366-.91-.436-1.325-.424-2.484 2.486.272.436 1.325zM90.343 25.163c-.626 8.793 3.329 16.822-.4 23.775-.104.195-.291.613-.948.237-2.474-1.422.906-4.116 1.174-5.792.907-5.67-2.032-13.184.174-18.22zM107.05 101.104c.396-.099-.62.153 0 0zM88.122 49.635c1.205-.302 2.143 3.528.582 1.767.03.03-1.341-1.578-.582-1.767zM87.9 52.08c1.045-.26 2.399 4.856.798 2.432-.046-.073-1.574-2.237-.797-2.432zM87.97 55.41c-.189.05 4.109 3.52 2.324 3.966.452-.114-4.667-3.378-2.323-3.965zM89.493 60.054c.395-.098-.623.156 0 0zM89.27 62.5c1.05-.26 1.655 2.949.288.885-.08-.124-.626-.8-.288-.886zM88.976 64.726c-1.574.395 3.594 2.211 1.887 2.638.79-.198-4.693-1.936-1.887-2.638zM100.864 100.977c.447-.112 1.424.36 1.164.426-.447.111-1.426-.361-1.164-.426zM88.971 67.837c.985-.245 2.037 4.62.434 1.327-.21-.434-.95-1.198-.434-1.327zM88.896 70.726c.982-.247 2.034 4.62.434 1.325-.21-.434-.951-1.195-.434-1.325zM88.743 73.395c1.047-.26 2.4 4.856.8 2.432-.05-.076-1.577-2.238-.8-2.432zM88.958 77.167c-.483.12 4.589 4.114 2.541 4.626.848-.21-5.064-3.994-2.54-4.626zM89.75 82.71c-.441.109 4.538 3.887 2.47 4.404.787-.197-5.086-3.75-2.47-4.404zM92.79 95.104c-1.576.393 3.594 2.209 1.89 2.635.79-.197-4.693-1.933-1.89-2.635z"></path>
    <g>
      <path d="M211.294 7.135c-.156.834-1.006 6.447-.956 6.457-1.32-.25-2.308-4.025-2.399-4.186-.447-.824-2.795-5.405-2.174-3.52.769 2.353-.655 4.541-1.102 6.015-.707 2.32 1.255 4.57 1.299 7.09.234 12.473-2.313 24.397-2.094 40.463.13 9.552.278 20.44 1.92 30.851.457 2.884 4.498 9.973 5.373 10.136-.595-.111 3.885-1.803 3.498-1.832-.263-.02.878.876 1.237.647 3.396-2.177-.626-5.027-1.518-7.75-1.12-3.41.089-7.034-.423-10.66-1.533-10.845.109-21.267.844-31.78.756-10.76 2.726-26.052-.964-37.306-.148-.45-1.2-5.566-2.832-5.511-.073.003.301.813.291.886zm-.883 6.678c.446-.112 1.423.361 1.164.426-.447.112-1.427-.361-1.164-.426zm-.297 2.224c.45-.112 1.43.361 1.167.426-.447.115-1.427-.358-1.167-.426zM194.24 20.727c.448-.111 1.425.359 1.162.426-.447.112-1.424-.36-1.161-.426zM194.672 25.163c-.107-.473-.366-.91-.437-1.325-.423-2.484 2.487.272.437 1.325zM194.672 25.163c-.626 8.793 3.328 16.822-.4 23.775-.104.195-.291.613-.949.237-2.473-1.422.907-4.116 1.175-5.792.907-5.67-2.032-13.184.174-18.22zM211.38 101.104c.395-.099-.621.153 0 0zM192.45 49.635c1.206-.302 2.144 3.528.582 1.767.032.03-1.34-1.578-.582-1.767zM192.23 52.08c1.044-.26 2.398 4.856.797 2.432-.047-.073-1.575-2.237-.798-2.432zM192.3 55.41c-.19.05 4.108 3.52 2.323 3.966.452-.114-4.667-3.378-2.323-3.965zM193.822 60.054c.395-.098-.623.156 0 0zM193.599 62.5c1.05-.26 1.655 2.949.288.885-.08-.124-.626-.8-.288-.886zM193.305 64.726c-1.574.395 3.594 2.211 1.89 2.638.79-.198-4.696-1.936-1.89-2.638zM205.193 100.977c.447-.112 1.424.36 1.164.426-.447.111-1.427-.361-1.164-.426zM193.3 67.837c.985-.245 2.037 4.62.434 1.327-.21-.434-.951-1.198-.434-1.327zM193.225 70.726c.982-.247 2.034 4.62.434 1.325-.21-.434-.951-1.195-.434-1.325zM193.074 73.395c1.044-.26 2.398 4.856.798 2.432-.05-.076-1.578-2.238-.798-2.432zM193.287 77.167c-.483.12 4.589 4.114 2.541 4.626.847-.21-5.064-3.994-2.541-4.626zM194.08 82.71c-.442.109 4.536 3.887 2.468 4.404.787-.197-5.085-3.75-2.469-4.404zM197.12 95.104c-1.578.393 3.593 2.209 1.889 2.635.79-.197-4.693-1.933-1.89-2.635z"></path>
    </g>
    <g>
      <path d="M315.623 7.135c-.156.834-1.006 6.447-.956 6.457-1.32-.25-2.308-4.025-2.399-4.186-.447-.824-2.796-5.405-2.175-3.52.77 2.353-.654 4.541-1.101 6.015-.707 2.32 1.255 4.57 1.299 7.09.234 12.473-2.313 24.397-2.095 40.463.13 9.552.279 20.44 1.92 30.851.458 2.884 4.499 9.973 5.374 10.136-.595-.111 3.885-1.803 3.498-1.832-.263-.02.878.876 1.237.647 3.396-2.177-.627-5.027-1.518-7.75-1.12-3.41.088-7.034-.423-10.66-1.534-10.845.109-21.267.844-31.78.756-10.76 2.726-26.052-.964-37.306-.148-.45-1.2-5.566-2.832-5.511-.073.003.301.813.29.886zm-.884 6.678c.447-.112 1.424.361 1.164.426-.447.112-1.426-.361-1.164-.426zm-.296 2.224c.45-.112 1.43.361 1.167.426-.447.115-1.427-.358-1.167-.426zM298.57 20.727c.446-.111 1.423.359 1.16.426-.446.112-1.423-.36-1.16-.426zM299 25.163c-.106-.473-.366-.91-.436-1.325-.423-2.484 2.487.272.437 1.325zM299 25.163c-.626 8.793 3.33 16.822-.4 23.775-.103.195-.29.613-.948.237-2.474-1.422.907-4.116 1.175-5.792.906-5.67-2.032-13.184.174-18.22zM315.708 101.104c.395-.099-.62.153 0 0zM296.78 49.635c1.205-.302 2.143 3.528.581 1.767.031.03-1.34-1.578-.582-1.767zM296.558 52.08c1.045-.26 2.399 4.856.798 2.432-.047-.073-1.575-2.237-.798-2.432zM296.628 55.41c-.19.05 4.108 3.52 2.323 3.966.452-.114-4.666-3.378-2.323-3.965zM298.151 60.054c.395-.098-.624.156 0 0zM297.928 62.5c1.05-.26 1.655 2.949.288.885-.08-.124-.626-.8-.288-.886zM297.634 64.726c-1.575.395 3.594 2.211 1.889 2.638.79-.198-4.695-1.936-1.89-2.638zM309.522 100.977c.447-.112 1.424.36 1.164.426-.447.111-1.427-.361-1.164-.426zM297.629 67.837c.985-.245 2.037 4.62.434 1.327-.21-.434-.951-1.198-.434-1.327zM297.553 70.726c.983-.247 2.035 4.62.434 1.325-.21-.434-.95-1.195-.434-1.325zM297.403 73.395c1.044-.26 2.398 4.856.797 2.432-.049-.076-1.577-2.238-.797-2.432zM297.616 77.167c-.484.12 4.589 4.114 2.541 4.626.847-.21-5.064-3.994-2.541-4.626zM298.408 82.71c-.441.109 4.537 3.887 2.469 4.404.787-.197-5.085-3.75-2.469-4.404zM301.448 95.104c-1.577.393 3.594 2.209 1.89 2.635.79-.197-4.693-1.933-1.89-2.635z"></path>
    </g>
    <g>
      <path d="M419.954 7.135c-.158.834-1.008 6.447-.956 6.457-1.32-.25-2.31-4.025-2.401-4.186-.447-.824-2.796-5.405-2.175-3.52.772 2.353-.652 4.541-1.102 6.015-.704 2.32 1.255 4.57 1.302 7.09.231 12.473-2.315 24.397-2.097 40.463.13 9.552.278 20.44 1.92 30.851.458 2.884 4.498 9.973 5.374 10.136-.595-.111 3.887-1.803 3.497-1.832-.262-.02.879.876 1.237.647 3.396-2.177-.626-5.027-1.517-7.75-1.12-3.41.088-7.034-.421-10.66-1.536-10.845.106-21.267.842-31.78.756-10.76 2.725-26.052-.964-37.306-.148-.45-1.198-5.566-2.83-5.511-.073.003.302.813.291.886zm-.883 6.678c.444-.112 1.424.361 1.161.426-.447.112-1.426-.361-1.161-.426zm-.3 2.224c.45-.112 1.43.361 1.168.426-.447.115-1.427-.358-1.167-.426zM402.898 20.727c.447-.111 1.424.359 1.164.426-.447.112-1.424-.36-1.164-.426zM403.33 25.163c-.107-.473-.367-.91-.437-1.325-.421-2.484 2.49.272.436 1.325zM403.33 25.163c-.627 8.793 3.328 16.822-.4 23.775-.105.195-.292.613-.946.237-2.477-1.422.904-4.116 1.174-5.792.904-5.67-2.035-13.184.171-18.22zM420.037 101.104c.395-.099-.62.153 0 0zM401.11 49.635c1.206-.302 2.142 3.528.58 1.767.031.03-1.338-1.578-.58-1.767zM400.887 52.08c1.045-.26 2.398 4.856.798 2.432-.047-.073-1.575-2.237-.798-2.432zM400.957 55.41c-.19.05 4.108 3.52 2.323 3.966.452-.114-4.667-3.378-2.323-3.965zM402.48 60.054c.397-.098-.621.156 0 0zM402.256 62.5c1.05-.26 1.656 2.949.289.885-.08-.124-.624-.8-.289-.886zM401.963 64.726c-1.575.395 3.593 2.211 1.889 2.638.79-.198-4.696-1.936-1.89-2.638zM413.85 100.977c.447-.112 1.427.36 1.165.426-.447.111-1.427-.361-1.165-.426zM401.958 67.837c.984-.245 2.037 4.62.433 1.327-.21-.434-.948-1.198-.433-1.327zM401.882 70.726c.982-.247 2.035 4.62.434 1.325-.21-.434-.95-1.195-.434-1.325zM401.731 73.395c1.045-.26 2.399 4.856.798 2.432-.05-.076-1.574-2.238-.798-2.432zM401.945 77.167c-.481.12 4.59 4.114 2.54 4.626.848-.21-5.064-3.994-2.54-4.626zM402.737 82.71c-.442.109 4.537 3.887 2.469 4.404.787-.197-5.086-3.75-2.469-4.404zM405.777 95.104c-1.577.393 3.596 2.209 1.89 2.635.79-.197-4.693-1.933-1.89-2.635z"></path>
    </g>
    <g>
      <path d="M20.495 140.917c4.262.158 32.891 1.008 32.938.956-1.266 1.32-20.52 2.31-21.344 2.4-4.209.448-27.569 2.797-17.957 2.176 11.997-.772 23.157.652 30.682 1.102 11.833.704 23.308-1.255 36.157-1.302 63.622-.232 124.448 2.315 206.391 2.097 48.723-.13 104.256-.278 157.352-1.92 14.718-.458 50.87-4.498 51.704-5.374-.572.595-9.191-3.887-9.342-3.498-.101.263 4.47-.878 3.303-1.236-11.108-3.397-25.652.626-39.54 1.517-17.38 1.117-35.871-.088-54.356.421-55.326 1.536-108.481-.107-162.107-.842-54.887-.759-132.878-2.726-190.285.964-2.291.148-28.385 1.198-28.104 2.83.01.073 4.147-.302 4.508-.291zm34.063.883c-.57-.444 1.842-1.424 2.175-1.161.571.447-1.843 1.426-2.175 1.161zm11.355.3c-.57-.45 1.842-1.43 2.175-1.168.571.447-1.843 1.427-2.175 1.167zM89.823 157.973c-.569-.447 1.843-1.424 2.175-1.164.572.447-1.842 1.424-2.175 1.164zM112.453 157.541c-2.411.107-4.636.367-6.764.437-12.66.42 1.39-2.49 6.764-.437zM112.453 157.541c44.851.627 85.802-3.328 121.276.4.995.105 3.126.292 1.205.946-7.25 2.477-21.003-.904-29.551-1.174-28.913-.904-67.24 2.034-92.93-.172zM499.798 140.834c-.507-.395.79.62 0 0zM237.27 159.76c-1.535-1.205 17.997-2.14 9.02-.579.163-.031-8.048 1.338-9.02.58zM249.75 159.984c-1.327-1.045 24.768-2.398 12.405-.798-.377.047-11.407 1.575-12.405.798zM266.744 159.914c.24.19 17.934-4.108 20.213-2.323-.577-.452-17.222 4.667-20.213 2.323zM290.42 158.391c-.506-.397.79.621 0 0zM302.9 158.615c-1.335-1.05 15.038-1.656 4.51-.289-.63.08-4.08.624-4.51.289zM314.259 158.908c2.003 1.575 11.271-3.593 13.446-1.889-1.008-.79-9.871 4.695-13.446 1.89zM499.154 147.02c-.575-.446 1.84-1.426 2.172-1.164.572.447-1.842 1.427-2.172 1.164zM330.12 158.913c-1.256-.984 23.564-2.037 6.766-.434-2.214.21-6.11.949-6.767.434zM344.855 158.989c-1.253-.985 23.565-2.035 6.766-.434-2.216.21-6.109.95-6.766.434zM358.465 159.14c-1.327-1.045 24.768-2.399 12.403-.798-.377.05-11.41 1.574-12.403.797zM377.714 158.926c.611.481 20.98-4.591 23.591-2.54-1.078-.848-20.376 5.063-23.59 2.54zM405.98 158.134c.561.442 19.828-4.537 22.466-2.469-1.003-.787-19.127 5.085-22.466 2.469zM469.194 155.094c2.009 1.577 11.275-3.596 13.45-1.89-1.009-.79-9.872 4.693-13.45 1.89z"></path>
    </g>
    <g>
      <path d="M241.007 201.26c.28.156 2.175 1.005 2.177.956-.083 1.32-1.356 2.307-1.41 2.398-.279.447-1.825 2.796-1.188 2.175.792-.769 1.53.655 2.03 1.102.781.707 1.54-1.255 2.39-1.3 4.21-.233 8.232 2.313 13.65 2.095 3.224-.13 6.895-.278 10.408-1.92.972-.458 3.363-4.498 3.42-5.374-.04.595-.608-3.884-.618-3.497-.008.262.296-.879.218-1.237-.736-3.396-1.697.626-2.617 1.517-1.148 1.12-2.372-.088-3.593.424-3.659 1.533-7.175-.11-10.721-.845-3.63-.756-8.788-2.725-12.585.964-.153.149-1.878 1.2-1.86 2.833 0 .072.275-.302.299-.291zm2.253.883c-.04-.447.122-1.424.143-1.164.038.447-.123 1.427-.143 1.164zm.75.296c-.038-.45.123-1.429.143-1.166.04.447-.122 1.426-.142 1.166zM245.593 218.313c-.039-.447.12-1.424.143-1.161.036.446-.122 1.423-.143 1.161zM247.09 217.882c-.161.106-.307.366-.45.436-.837.424.094-2.486.45-.436zM247.09 217.882c2.964.626 5.672-3.329 8.018.4.068.104.208.29.08.948-.477 2.474-1.39-.907-1.953-1.174-1.913-.907-4.449 2.032-6.145-.174zM272.707 201.174c-.033-.395.052.621 0 0zM255.342 220.103c-.101-1.205 1.193-2.143.598-.582.01-.03-.533 1.341-.598.582zM256.169 220.324c-.089-1.044 1.64-2.398.82-.797-.025.046-.753 1.574-.82.797zM257.294 220.254c.015.19 1.184-4.108 1.335-2.323-.039-.452-1.138 4.667-1.335 2.323zM258.858 218.731c-.034-.395.052.624 0 0zM259.684 218.955c-.088-1.05.995-1.655.299-.289-.042.081-.27.627-.299.289zM260.435 219.248c.133 1.575.746-3.593.889-1.889-.065-.79-.652 4.696-.889 1.89zM272.663 207.36c-.036-.446.122-1.423.143-1.163.04.447-.12 1.426-.143 1.164zM261.485 219.254c-.083-.985 1.559-2.037.447-.434-.146.21-.403.95-.447.434zM262.46 219.329c-.084-.982 1.558-2.035.446-.434-.145.21-.403.951-.447.434zM263.358 219.48c-.088-1.045 1.64-2.399.821-.798-.026.05-.756 1.577-.82.798zM264.632 219.267c.041.483 1.387-4.59 1.561-2.542-.073-.847-1.348 5.065-1.561 2.542zM266.502 218.474c.037.442 1.31-4.537 1.484-2.468-.065-.788-1.263 5.085-1.484 2.468zM270.683 215.434c.133 1.577.746-3.594.889-1.889-.068-.79-.652 4.693-.889 1.889z"></path>
    </g>
    <g>
      <path d="M325.912 201.26c.284.156 2.175 1.005 2.18.956-.085 1.32-1.358 2.307-1.413 2.398-.278.447-1.822 2.796-1.187 2.175.795-.769 1.533.655 2.029 1.102.782.707 1.54-1.255 2.39-1.3 4.21-.233 8.232 2.313 13.652 2.095 3.222-.13 6.894-.278 10.407-1.92.972-.458 3.365-4.498 3.42-5.374-.04.595-.608-3.884-.619-3.497-.005.262.296-.879.218-1.237-.735-3.396-1.696.626-2.614 1.517-1.15 1.12-2.372-.088-3.596.424-3.658 1.533-7.174-.11-10.72-.845-3.63-.756-8.789-2.725-12.585.964-.153.149-1.879 1.2-1.86 2.833.002.072.275-.302.298-.291zm2.253.883c-.036-.447.122-1.424.146-1.164.036.447-.122 1.427-.146 1.164zm.751.296c-.036-.45.122-1.429.146-1.166.036.447-.122 1.426-.146 1.166zM330.499 218.313c-.04-.447.122-1.424.143-1.161.039.446-.123 1.423-.143 1.161zM331.995 217.882c-.16.106-.306.366-.447.436-.839.424.091-2.486.447-.436z"></path>
      <path d="M331.995 217.882c2.965.626 5.675-3.329 8.022.4.065.104.205.29.078.948-.479 2.474-1.388-.907-1.954-1.174-1.913-.907-4.446 2.032-6.146-.174zM357.613 201.174c-.034-.395.052.621 0 0zM340.25 220.103c-.1-1.205 1.19-2.143.596-.582.012-.03-.53 1.341-.596.582zM341.074 220.324c-.086-1.044 1.64-2.398.821-.797-.023.046-.753 1.574-.82.797zM342.2 220.254c.015.19 1.184-4.108 1.335-2.323-.037-.452-1.138 4.667-1.336 2.323zM343.766 218.731c-.034-.395.052.624 0 0zM344.59 218.955c-.089-1.05.995-1.655.299-.289-.042.081-.27.627-.3.289zM345.34 219.248c.133 1.575.747-3.593.892-1.889-.068-.79-.655 4.696-.891 1.89zM357.571 207.36c-.038-.446.12-1.423.143-1.163.037.447-.122 1.426-.143 1.164zM346.39 219.254c-.083-.985 1.56-2.037.447-.434-.145.21-.402.95-.446.434zM347.365 219.329c-.083-.982 1.559-2.035.447-.434-.146.21-.403.951-.447.434zM348.267 219.48c-.089-1.045 1.637-2.399.818-.798-.023.05-.753 1.577-.818.798zM349.537 219.267c.042.483 1.39-4.59 1.562-2.542-.07-.847-1.349 5.065-1.562 2.542zM351.408 218.474c.036.442 1.312-4.537 1.486-2.468-.067-.788-1.265 5.085-1.486 2.468zM355.589 215.434c.132 1.577.746-3.594.889-1.889-.065-.79-.653 4.693-.89 1.889z"></path>
    </g>
    <g>
      <path d="M410.818 201.26c.283.156 2.178 1.005 2.18.956-.083 1.32-1.356 2.307-1.41 2.398-.281.447-1.825 2.796-1.19 2.175.794-.769 1.532.655 2.029 1.102.784.707 1.543-1.255 2.393-1.3 4.206-.233 8.229 2.313 13.65 2.095 3.221-.13 6.895-.278 10.406-1.92.974-.458 3.365-4.498 3.42-5.374-.04.595-.609-3.884-.62-3.497-.004.262.297-.879.22-1.237-.734-3.396-1.698.626-2.615 1.517-1.148 1.12-2.372-.088-3.596.424-3.659 1.533-7.174-.11-10.721-.845-3.63-.756-8.788-2.725-12.584.964-.151.149-1.876 1.2-1.858 2.833 0 .072.273-.302.296-.291zm2.253.883c-.036-.447.122-1.424.145-1.164.037.447-.122 1.427-.145 1.164zm.75.296c-.036-.45.123-1.429.146-1.166.037.447-.122 1.426-.145 1.166zM415.404 218.313c-.036-.447.122-1.424.143-1.161.04.446-.12 1.423-.143 1.161zM416.901 217.882c-.159.106-.307.366-.447.436-.837.424.091-2.486.447-.436zM416.901 217.882c2.967.626 5.675-3.329 8.021.4.065.104.206.29.08.948-.48 2.474-1.39-.907-1.956-1.174-1.912-.907-4.446 2.032-6.145-.174zM442.519 201.174c-.034-.395.052.621 0 0zM425.156 220.103c-.101-1.205 1.19-2.143.598-.582.01-.03-.533 1.341-.598.582zM425.982 220.324c-.088-1.044 1.637-2.398.819-.797-.023.046-.754 1.574-.819.797zM427.105 220.254c.016.19 1.187-4.108 1.338-2.323-.039-.452-1.14 4.667-1.338 2.323zM428.672 218.731c-.034-.395.052.624 0 0zM429.495 218.955c-.088-1.05.996-1.655.3-.289-.042.081-.271.627-.3.289zM430.249 219.248c.133 1.575.743-3.593.889-1.889-.068-.79-.653 4.696-.889 1.89zM442.477 207.36c-.039-.446.12-1.423.143-1.163.036.447-.122 1.426-.143 1.164zM431.296 219.254c-.083-.985 1.56-2.037.447-.434-.145.21-.403.95-.447.434zM432.27 219.329c-.083-.982 1.56-2.035.45-.434-.148.21-.405.951-.45.434zM433.172 219.48c-.088-1.045 1.637-2.399.819-.798-.024.05-.754 1.577-.819.798zM434.445 219.267c.04.483 1.388-4.59 1.56-2.542-.07-.847-1.35 5.065-1.56 2.542zM436.314 218.474c.036.442 1.312-4.537 1.486-2.468-.068-.788-1.265 5.085-1.486 2.468zM440.495 215.434c.132 1.577.745-3.594.888-1.889-.065-.79-.652 4.693-.888 1.889z"></path>
    </g>
    <g>
      <path d="M71.193 255.961c.283.159 2.177 1.009 2.18.957-.083 1.32-1.356 2.31-1.411 2.398-.28.447-1.824 2.798-1.19 2.177.795-.771 1.533.653 2.03 1.102.784.704 1.543-1.255 2.392-1.302 4.207-.23 8.23 2.316 13.65 2.097 3.222-.13 6.896-.28 10.407-1.923.974-.457 3.364-4.495 3.419-5.373-.036.598-.608-3.885-.618-3.495-.006.263.296-.88.218-1.237-.733-3.396-1.697.626-2.614 1.518-1.149 1.117-2.372-.091-3.596.42-3.659 1.536-7.175-.106-10.721-.844-3.63-.756-8.788-2.723-12.584.967-.151.145-1.877 1.198-1.858 2.83 0 .072.272-.302.296-.292zm2.253.884c-.037-.444.122-1.424.145-1.162.037.447-.122 1.427-.145 1.162zm.75.299c-.036-.45.123-1.43.146-1.167.037.447-.122 1.427-.145 1.167zM75.78 273.015c-.037-.445.121-1.424.142-1.162.039.447-.12 1.424-.143 1.162zM77.276 272.586c-.159.107-.307.366-.447.437-.837.42.09-2.49.447-.437zM77.276 272.586c2.967.626 5.675-3.329 8.021.398.065.104.205.29.08.948-.48 2.476-1.39-.907-1.956-1.174-1.912-.905-4.446 2.034-6.145-.172zM102.893 255.876c-.033-.395.052.623 0 0zM85.53 274.805c-.1-1.206 1.191-2.144.599-.58.01-.03-.533 1.339-.598.58zM86.357 275.029c-.088-1.048 1.637-2.399.819-.798-.024.047-.754 1.574-.819.798zM87.48 274.958c.015.187 1.187-4.108 1.338-2.323-.04-.452-1.14 4.667-1.338 2.323zM89.047 273.436c-.034-.398.052.62 0 0zM89.87 273.66c-.088-1.05.995-1.656.3-.292-.043.083-.271.626-.3.291zM90.624 273.95c.132 1.577.743-3.59.888-1.886-.067-.79-.652 4.693-.888 1.886zM102.852 262.065c-.04-.447.12-1.426.143-1.164.036.447-.122 1.427-.143 1.164zM91.67 273.958c-.082-.985 1.56-2.037.448-.434-.146.208-.403.949-.447.434zM92.645 274.033c-.083-.984 1.56-2.037.45-.434-.148.21-.405.951-.45.434zM93.547 274.184c-.088-1.045 1.637-2.398.818-.798-.023.05-.753 1.575-.818.798zM94.82 273.971c.04.48 1.388-4.591 1.56-2.541-.07-.847-1.35 5.064-1.56 2.541zM96.688 273.178c.037.44 1.313-4.536 1.487-2.47-.068-.785-1.266 5.087-1.487 2.47zM100.87 270.136c.132 1.58.745-3.594.888-1.887-.065-.79-.652 4.693-.889 1.887z"></path>
    </g>
    <g>
      <path d="M156.101 255.961c.28.159 2.175 1.009 2.178.957-.084 1.32-1.357 2.31-1.411 2.398-.278.447-1.824 2.798-1.188 2.177.793-.771 1.53.653 2.03 1.102.782.704 1.54-1.255 2.39-1.302 4.207-.23 8.232 2.316 13.65 2.097 3.222-.13 6.896-.28 10.406-1.923.975-.457 3.365-4.495 3.42-5.373-.037.598-.608-3.885-.616-3.495-.008.263.293-.88.218-1.237-.735-3.396-1.697.626-2.616 1.518-1.149 1.117-2.373-.091-3.594.42-3.661 1.536-7.174-.106-10.721-.844-3.63-.756-8.79-2.723-12.587.967-.15.145-1.876 1.198-1.858 2.83 0 .072.276-.302.3-.292zm2.253.884c-.039-.444.122-1.424.143-1.162.039.447-.122 1.427-.143 1.162zm.75.299c-.038-.45.123-1.43.144-1.167.039.447-.122 1.427-.143 1.167zM160.685 273.015c-.037-.445.122-1.424.145-1.162.037.447-.122 1.424-.145 1.162zM162.181 272.586c-.158.107-.306.366-.447.437-.836.42.094-2.49.447-.437zM162.181 272.586c2.968.626 5.675-3.329 8.022.398.065.104.208.29.08.948-.48 2.476-1.39-.907-1.954-1.174-1.912-.905-4.448 2.034-6.148-.172zM187.8 255.876c-.035-.395.051.623 0 0zM170.437 274.805c-.102-1.206 1.19-2.144.597-.58.01-.03-.532 1.339-.597.58zM171.263 275.029c-.089-1.048 1.637-2.399.821-.798-.026.047-.756 1.574-.821.798zM172.385 274.958c.019.187 1.188-4.108 1.339-2.323-.04-.452-1.139 4.667-1.339 2.323zM173.952 273.436c-.034-.398.052.62 0 0zM174.779 273.66c-.089-1.05.992-1.656.296-.292-.042.083-.268.626-.296.291zM175.53 273.95c.132 1.577.745-3.59.888-1.886-.067-.79-.652 4.693-.889 1.886zM187.758 262.065c-.04-.447.122-1.426.142-1.164.04.447-.122 1.427-.142 1.164zM176.58 273.958c-.084-.985 1.556-2.037.446-.434-.148.208-.405.949-.447.434zM177.554 274.033c-.084-.984 1.556-2.037.447-.434-.149.21-.406.951-.447.434zM178.453 274.184c-.089-1.045 1.637-2.398.82-.798-.025.05-.755 1.575-.82.798zM179.726 273.971c.039.48 1.387-4.591 1.559-2.541-.07-.847-1.346 5.064-1.56 2.541zM181.594 273.178c.04.44 1.312-4.536 1.486-2.47-.065-.785-1.265 5.087-1.486 2.47zM185.775 270.136c.133 1.58.746-3.594.891-1.887-.067-.79-.655 4.693-.891 1.887z"></path>
    </g>
    <g>
      <path d="M241.007 255.961c.28.159 2.175 1.009 2.177.957-.083 1.32-1.356 2.31-1.41 2.398-.279.447-1.825 2.798-1.188 2.177.792-.771 1.53.653 2.03 1.102.781.704 1.54-1.255 2.39-1.302 4.21-.23 8.232 2.316 13.65 2.097 3.224-.13 6.895-.28 10.408-1.923.972-.457 3.363-4.495 3.42-5.373-.04.598-.608-3.885-.618-3.495-.008.263.296-.88.218-1.237-.736-3.396-1.697.626-2.617 1.518-1.148 1.117-2.372-.091-3.593.42-3.659 1.536-7.175-.106-10.721-.844-3.63-.756-8.788-2.723-12.585.967-.153.145-1.878 1.198-1.86 2.83 0 .072.275-.302.299-.292zm2.253.884c-.04-.444.122-1.424.143-1.162.038.447-.123 1.427-.143 1.162zm.75.299c-.038-.45.123-1.43.143-1.167.04.447-.122 1.427-.142 1.167zM245.593 273.015c-.039-.445.12-1.424.143-1.162.036.447-.122 1.424-.143 1.162zM247.09 272.586c-.161.107-.307.366-.45.437-.837.42.094-2.49.45-.437zM247.09 272.586c2.964.626 5.672-3.329 8.018.398.068.104.208.29.08.948-.477 2.476-1.39-.907-1.953-1.174-1.913-.905-4.449 2.034-6.145-.172zM272.707 255.876c-.033-.395.052.623 0 0zM255.342 274.805c-.101-1.206 1.193-2.144.598-.58.01-.03-.533 1.339-.598.58zM256.169 275.029c-.089-1.048 1.64-2.399.82-.798-.025.047-.753 1.574-.82.798zM257.294 274.958c.015.187 1.184-4.108 1.335-2.323-.039-.452-1.138 4.667-1.335 2.323zM258.858 273.436c-.034-.398.052.62 0 0zM259.684 273.66c-.088-1.05.995-1.656.299-.292-.042.083-.27.626-.299.291zM260.435 273.95c.133 1.577.746-3.59.889-1.886-.065-.79-.652 4.693-.889 1.886zM272.663 262.065c-.036-.447.122-1.426.143-1.164.04.447-.12 1.427-.143 1.164zM261.485 273.958c-.083-.985 1.559-2.037.447-.434-.146.208-.403.949-.447.434zM262.46 274.033c-.084-.984 1.558-2.037.446-.434-.145.21-.403.951-.447.434zM263.358 274.184c-.088-1.045 1.64-2.398.821-.798-.026.05-.756 1.575-.82.798zM264.632 273.971c.041.48 1.387-4.591 1.561-2.541-.073-.847-1.348 5.064-1.561 2.541zM266.502 273.178c.037.44 1.31-4.536 1.484-2.47-.065-.785-1.263 5.087-1.484 2.47zM270.683 270.136c.133 1.58.746-3.594.889-1.887-.068-.79-.652 4.693-.889 1.887z"></path>
    </g>
    <g>
      <path d="M325.912 255.961c.284.159 2.175 1.009 2.18.957-.085 1.32-1.358 2.31-1.413 2.398-.278.447-1.822 2.798-1.187 2.177.795-.771 1.533.653 2.029 1.102.782.704 1.54-1.255 2.39-1.302 4.21-.23 8.232 2.316 13.652 2.097 3.222-.13 6.894-.28 10.407-1.923.972-.457 3.365-4.495 3.42-5.373-.04.598-.608-3.885-.619-3.495-.005.263.296-.88.218-1.237-.735-3.396-1.696.626-2.614 1.518-1.15 1.117-2.372-.091-3.596.42-3.658 1.536-7.174-.106-10.72-.844-3.63-.756-8.789-2.723-12.585.967-.153.145-1.879 1.198-1.86 2.83.002.072.275-.302.298-.292zm2.253.884c-.036-.444.122-1.424.146-1.162.036.447-.122 1.427-.146 1.162zm.751.299c-.036-.45.122-1.43.146-1.167.036.447-.122 1.427-.146 1.167zM330.499 273.015c-.04-.445.122-1.424.143-1.162.039.447-.123 1.424-.143 1.162zM331.995 272.586c-.16.107-.306.366-.447.437-.839.42.091-2.49.447-.437z"></path>
      <path d="M331.995 272.586c2.965.626 5.675-3.329 8.022.398.065.104.205.29.078.948-.479 2.476-1.388-.907-1.954-1.174-1.913-.905-4.446 2.034-6.146-.172zM357.613 255.876c-.034-.395.052.623 0 0zM340.25 274.805c-.1-1.206 1.19-2.144.596-.58.012-.03-.53 1.339-.596.58zM341.074 275.029c-.086-1.048 1.64-2.399.821-.798-.023.047-.753 1.574-.82.798zM342.2 274.958c.015.187 1.184-4.108 1.335-2.323-.037-.452-1.138 4.667-1.336 2.323zM343.766 273.436c-.034-.398.052.62 0 0zM344.59 273.66c-.089-1.05.995-1.656.299-.292-.042.083-.27.626-.3.291zM345.34 273.95c.133 1.577.747-3.59.892-1.886-.068-.79-.655 4.693-.891 1.886zM357.571 262.065c-.038-.447.12-1.426.143-1.164.037.447-.122 1.427-.143 1.164zM346.39 273.958c-.083-.985 1.56-2.037.447-.434-.145.208-.402.949-.446.434zM347.365 274.033c-.083-.984 1.559-2.037.447-.434-.146.21-.403.951-.447.434zM348.267 274.184c-.089-1.045 1.637-2.398.818-.798-.023.05-.753 1.575-.818.798zM349.537 273.971c.042.48 1.39-4.591 1.562-2.541-.07-.847-1.349 5.064-1.562 2.541zM351.408 273.178c.036.44 1.312-4.536 1.486-2.47-.067-.785-1.265 5.087-1.486 2.47zM355.589 270.136c.132 1.58.746-3.594.889-1.887-.065-.79-.653 4.693-.89 1.887z"></path>
    </g>
    <g>
      <path d="M410.818 255.961c.283.159 2.178 1.009 2.18.957-.083 1.32-1.356 2.31-1.41 2.398-.281.447-1.825 2.798-1.19 2.177.794-.771 1.532.653 2.029 1.102.784.704 1.543-1.255 2.393-1.302 4.206-.23 8.229 2.316 13.65 2.097 3.221-.13 6.895-.28 10.406-1.923.974-.457 3.365-4.495 3.42-5.373-.04.598-.609-3.885-.62-3.495-.004.263.297-.88.22-1.237-.734-3.396-1.698.626-2.615 1.518-1.148 1.117-2.372-.091-3.596.42-3.659 1.536-7.174-.106-10.721-.844-3.63-.756-8.788-2.723-12.584.967-.151.145-1.876 1.198-1.858 2.83 0 .072.273-.302.296-.292zm2.253.884c-.036-.444.122-1.424.145-1.162.037.447-.122 1.427-.145 1.162zm.75.299c-.036-.45.123-1.43.146-1.167.037.447-.122 1.427-.145 1.167zM415.404 273.015c-.036-.445.122-1.424.143-1.162.04.447-.12 1.424-.143 1.162zM416.901 272.586c-.159.107-.307.366-.447.437-.837.42.091-2.49.447-.437zM416.901 272.586c2.967.626 5.675-3.329 8.021.398.065.104.206.29.08.948-.48 2.476-1.39-.907-1.956-1.174-1.912-.905-4.446 2.034-6.145-.172zM442.519 255.876c-.034-.395.052.623 0 0zM425.156 274.805c-.101-1.206 1.19-2.144.598-.58.01-.03-.533 1.339-.598.58zM425.982 275.029c-.088-1.048 1.637-2.399.819-.798-.023.047-.754 1.574-.819.798zM427.105 274.958c.016.187 1.187-4.108 1.338-2.323-.039-.452-1.14 4.667-1.338 2.323zM428.672 273.436c-.034-.398.052.62 0 0zM429.495 273.66c-.088-1.05.996-1.656.3-.292-.042.083-.271.626-.3.291zM430.249 273.95c.133 1.577.743-3.59.889-1.886-.068-.79-.653 4.693-.889 1.886zM442.477 262.065c-.039-.447.12-1.426.143-1.164.036.447-.122 1.427-.143 1.164zM431.296 273.958c-.083-.985 1.56-2.037.447-.434-.145.208-.403.949-.447.434zM432.27 274.033c-.083-.984 1.56-2.037.45-.434-.148.21-.405.951-.45.434zM433.172 274.184c-.088-1.045 1.637-2.398.819-.798-.024.05-.754 1.575-.819.798zM434.445 273.971c.04.48 1.388-4.591 1.56-2.541-.07-.847-1.35 5.064-1.56 2.541zM436.314 273.178c.036.44 1.312-4.536 1.486-2.47-.068-.785-1.265 5.087-1.486 2.47zM440.495 270.136c.132 1.58.745-3.594.888-1.887-.065-.79-.652 4.693-.888 1.887z"></path>
    </g>
    <g>
      <path d="M71.193 310.666c.283.158 2.177 1.005 2.18.956-.083 1.32-1.356 2.31-1.411 2.398-.28.447-1.824 2.796-1.19 2.178.795-.772 1.533.652 2.03 1.101.784.705 1.543-1.255 2.392-1.301 4.207-.234 8.23 2.312 13.65 2.094 3.222-.127 6.896-.278 10.407-1.92.974-.458 3.364-4.495 3.419-5.374-.036.598-.608-3.884-.618-3.497-.006.262.296-.878.218-1.234-.733-3.4-1.697.623-2.614 1.517-1.149 1.117-2.372-.09-3.596.421-3.659 1.533-7.175-.11-10.721-.845-3.63-.756-8.788-2.725-12.584.965-.151.148-1.877 1.2-1.858 2.832 0 .073.272-.302.296-.291zm2.253.883c-.037-.444.122-1.424.145-1.161.037.447-.122 1.426-.145 1.161zm.75.296c-.036-.447.123-1.426.146-1.166.037.447-.122 1.426-.145 1.166zM75.78 327.72c-.037-.448.121-1.425.142-1.162.039.447-.12 1.424-.143 1.161zM77.276 327.29c-.159.104-.307.364-.447.437-.837.42.09-2.49.447-.437zM77.276 327.29c2.967.624 5.675-3.328 8.021.398.065.104.205.29.08.948-.48 2.477-1.39-.906-1.956-1.174-1.912-.907-4.446 2.032-6.145-.172zM102.893 310.58c-.033-.395.052.621 0 0zM85.53 329.51c-.1-1.206 1.191-2.144.599-.58.01-.031-.533 1.338-.598.58zM86.357 329.73c-.088-1.044 1.637-2.398.819-.797-.024.049-.754 1.577-.819.797zM87.48 329.66c.015.19 1.187-4.105 1.338-2.32-.04-.455-1.14 4.667-1.338 2.32zM89.047 328.14c-.034-.398.052.621 0 0zM89.87 328.36c-.088-1.049.995-1.654.3-.287-.043.08-.271.626-.3.288zM90.624 328.655c.132 1.574.743-3.591.888-1.887-.067-.79-.652 4.693-.888 1.887zM102.852 316.77c-.04-.448.12-1.427.143-1.165.036.447-.122 1.424-.143 1.164zM91.67 328.66c-.082-.985 1.56-2.035.448-.434-.146.21-.403.95-.447.434zM92.645 328.735c-.083-.982 1.56-2.034.45-.434-.148.213-.405.951-.45.434zM93.547 328.888c-.088-1.047 1.637-2.4.818-.797-.023.049-.753 1.574-.818.797zM94.82 328.673c.04.483 1.388-4.589 1.56-2.539-.07-.85-1.35 5.062-1.56 2.539zM96.688 327.88c.037.442 1.313-4.537 1.487-2.468-.068-.785-1.266 5.087-1.487 2.468zM100.87 324.84c.132 1.577.745-3.594.888-1.886-.065-.79-.652 4.69-.889 1.886z"></path>
    </g>
    <g>
      <path d="M156.101 310.666c.28.158 2.175 1.005 2.178.956-.084 1.32-1.357 2.31-1.411 2.398-.278.447-1.824 2.796-1.188 2.178.793-.772 1.53.652 2.03 1.101.782.705 1.54-1.255 2.39-1.301 4.207-.234 8.232 2.312 13.65 2.094 3.222-.127 6.896-.278 10.406-1.92.975-.458 3.365-4.495 3.42-5.374-.037.598-.608-3.884-.616-3.497-.008.262.293-.878.218-1.234-.735-3.4-1.697.623-2.616 1.517-1.149 1.117-2.373-.09-3.594.421-3.661 1.533-7.174-.11-10.721-.845-3.63-.756-8.79-2.725-12.587.965-.15.148-1.876 1.2-1.858 2.832 0 .073.276-.302.3-.291zm2.253.883c-.039-.444.122-1.424.143-1.161.039.447-.122 1.426-.143 1.161zm.75.296c-.038-.447.123-1.426.144-1.166.039.447-.122 1.426-.143 1.166zM160.685 327.72c-.037-.448.122-1.425.145-1.162.037.447-.122 1.424-.145 1.161zM162.181 327.29c-.158.104-.306.364-.447.437-.836.42.094-2.49.447-.437zM162.181 327.29c2.968.624 5.675-3.328 8.022.398.065.104.208.29.08.948-.48 2.477-1.39-.906-1.954-1.174-1.912-.907-4.448 2.032-6.148-.172zM187.8 310.58c-.035-.395.051.621 0 0zM170.437 329.51c-.102-1.206 1.19-2.144.597-.58.01-.031-.532 1.338-.597.58zM171.263 329.73c-.089-1.044 1.637-2.398.821-.797-.026.049-.756 1.577-.821.797zM172.385 329.66c.019.19 1.188-4.105 1.339-2.32-.04-.455-1.139 4.667-1.339 2.32zM173.952 328.14c-.034-.398.052.621 0 0zM174.779 328.36c-.089-1.049.992-1.654.296-.287-.042.08-.268.626-.296.288zM175.53 328.655c.132 1.574.745-3.591.888-1.887-.067-.79-.652 4.693-.889 1.887zM187.758 316.77c-.04-.448.122-1.427.142-1.165.04.447-.122 1.424-.142 1.164zM176.58 328.66c-.084-.985 1.556-2.035.446-.434-.148.21-.405.95-.447.434zM177.554 328.735c-.084-.982 1.556-2.034.447-.434-.149.213-.406.951-.447.434zM178.453 328.888c-.089-1.047 1.637-2.4.82-.797-.025.049-.755 1.574-.82.797zM179.726 328.673c.039.483 1.387-4.589 1.559-2.539-.07-.85-1.346 5.062-1.56 2.539zM181.594 327.88c.04.442 1.312-4.537 1.486-2.468-.065-.785-1.265 5.087-1.486 2.468zM185.775 324.84c.133 1.577.746-3.594.891-1.886-.067-.79-.655 4.69-.891 1.886z"></path>
    </g>
    <g>
      <path d="M241.007 310.666c.28.158 2.175 1.005 2.177.956-.083 1.32-1.356 2.31-1.41 2.398-.279.447-1.825 2.796-1.188 2.178.792-.772 1.53.652 2.03 1.101.781.705 1.54-1.255 2.39-1.301 4.21-.234 8.232 2.312 13.65 2.094 3.224-.127 6.895-.278 10.408-1.92.972-.458 3.363-4.495 3.42-5.374-.04.598-.608-3.884-.618-3.497-.008.262.296-.878.218-1.234-.736-3.4-1.697.623-2.617 1.517-1.148 1.117-2.372-.09-3.593.421-3.659 1.533-7.175-.11-10.721-.845-3.63-.756-8.788-2.725-12.585.965-.153.148-1.878 1.2-1.86 2.832 0 .073.275-.302.299-.291zm2.253.883c-.04-.444.122-1.424.143-1.161.038.447-.123 1.426-.143 1.161zm.75.296c-.038-.447.123-1.426.143-1.166.04.447-.122 1.426-.142 1.166zM245.593 327.72c-.039-.448.12-1.425.143-1.162.036.447-.122 1.424-.143 1.161zM247.09 327.29c-.161.104-.307.364-.45.437-.837.42.094-2.49.45-.437zM247.09 327.29c2.964.624 5.672-3.328 8.018.398.068.104.208.29.08.948-.477 2.477-1.39-.906-1.953-1.174-1.913-.907-4.449 2.032-6.145-.172zM272.707 310.58c-.033-.395.052.621 0 0zM255.342 329.51c-.101-1.206 1.193-2.144.598-.58.01-.031-.533 1.338-.598.58zM256.169 329.73c-.089-1.044 1.64-2.398.82-.797-.025.049-.753 1.577-.82.797zM257.294 329.66c.015.19 1.184-4.105 1.335-2.32-.039-.455-1.138 4.667-1.335 2.32zM258.858 328.14c-.034-.398.052.621 0 0zM259.684 328.36c-.088-1.049.995-1.654.299-.287-.042.08-.27.626-.299.288zM260.435 328.655c.133 1.574.746-3.591.889-1.887-.065-.79-.652 4.693-.889 1.887zM272.663 316.77c-.036-.448.122-1.427.143-1.165.04.447-.12 1.424-.143 1.164zM261.485 328.66c-.083-.985 1.559-2.035.447-.434-.146.21-.403.95-.447.434zM262.46 328.735c-.084-.982 1.558-2.034.446-.434-.145.213-.403.951-.447.434zM263.358 328.888c-.088-1.047 1.64-2.4.821-.797-.026.049-.756 1.574-.82.797zM264.632 328.673c.041.483 1.387-4.589 1.561-2.539-.073-.85-1.348 5.062-1.561 2.539zM266.502 327.88c.037.442 1.31-4.537 1.484-2.468-.065-.785-1.263 5.087-1.484 2.468zM270.683 324.84c.133 1.577.746-3.594.889-1.886-.068-.79-.652 4.69-.889 1.886z"></path>
    </g>
    <g>
      <path d="M325.912 310.666c.284.158 2.175 1.005 2.18.956-.085 1.32-1.358 2.31-1.413 2.398-.278.447-1.822 2.796-1.187 2.178.795-.772 1.533.652 2.029 1.101.782.705 1.54-1.255 2.39-1.301 4.21-.234 8.232 2.312 13.652 2.094 3.222-.127 6.894-.278 10.407-1.92.972-.458 3.365-4.495 3.42-5.374-.04.598-.608-3.884-.619-3.497-.005.262.296-.878.218-1.234-.735-3.4-1.696.623-2.614 1.517-1.15 1.117-2.372-.09-3.596.421-3.658 1.533-7.174-.11-10.72-.845-3.63-.756-8.789-2.725-12.585.965-.153.148-1.879 1.2-1.86 2.832.002.073.275-.302.298-.291zm2.253.883c-.036-.444.122-1.424.146-1.161.036.447-.122 1.426-.146 1.161zm.751.296c-.036-.447.122-1.426.146-1.166.036.447-.122 1.426-.146 1.166zM330.499 327.72c-.04-.448.122-1.425.143-1.162.039.447-.123 1.424-.143 1.161zM331.995 327.29c-.16.104-.306.364-.447.437-.839.42.091-2.49.447-.437z"></path>
      <path d="M331.995 327.29c2.965.624 5.675-3.328 8.022.398.065.104.205.29.078.948-.479 2.477-1.388-.906-1.954-1.174-1.913-.907-4.446 2.032-6.146-.172zM357.613 310.58c-.034-.395.052.621 0 0zM340.25 329.51c-.1-1.206 1.19-2.144.596-.58.012-.031-.53 1.338-.596.58zM341.074 329.73c-.086-1.044 1.64-2.398.821-.797-.023.049-.753 1.577-.82.797zM342.2 329.66c.015.19 1.184-4.105 1.335-2.32-.037-.455-1.138 4.667-1.336 2.32zM343.766 328.14c-.034-.398.052.621 0 0zM344.59 328.36c-.089-1.049.995-1.654.299-.287-.042.08-.27.626-.3.288zM345.34 328.655c.133 1.574.747-3.591.892-1.887-.068-.79-.655 4.693-.891 1.887zM357.571 316.77c-.038-.448.12-1.427.143-1.165.037.447-.122 1.424-.143 1.164zM346.39 328.66c-.083-.985 1.56-2.035.447-.434-.145.21-.402.95-.446.434zM347.365 328.735c-.083-.982 1.559-2.034.447-.434-.146.213-.403.951-.447.434zM348.267 328.888c-.089-1.047 1.637-2.4.818-.797-.023.049-.753 1.574-.818.797zM349.537 328.673c.042.483 1.39-4.589 1.562-2.539-.07-.85-1.349 5.062-1.562 2.539zM351.408 327.88c.036.442 1.312-4.537 1.486-2.468-.067-.785-1.265 5.087-1.486 2.468zM355.589 324.84c.132 1.577.746-3.594.889-1.886-.065-.79-.653 4.69-.89 1.886z"></path>
    </g>
    <g>
      <path d="M410.818 310.666c.283.158 2.178 1.005 2.18.956-.083 1.32-1.356 2.31-1.41 2.398-.281.447-1.825 2.796-1.19 2.178.794-.772 1.532.652 2.029 1.101.784.705 1.543-1.255 2.393-1.301 4.206-.234 8.229 2.312 13.65 2.094 3.221-.127 6.895-.278 10.406-1.92.974-.458 3.365-4.495 3.42-5.374-.04.598-.609-3.884-.62-3.497-.004.262.297-.878.22-1.234-.734-3.4-1.698.623-2.615 1.517-1.148 1.117-2.372-.09-3.596.421-3.659 1.533-7.174-.11-10.721-.845-3.63-.756-8.788-2.725-12.584.965-.151.148-1.876 1.2-1.858 2.832 0 .073.273-.302.296-.291zm2.253.883c-.036-.444.122-1.424.145-1.161.037.447-.122 1.426-.145 1.161zm.75.296c-.036-.447.123-1.426.146-1.166.037.447-.122 1.426-.145 1.166zM415.404 327.72c-.036-.448.122-1.425.143-1.162.04.447-.12 1.424-.143 1.161zM416.901 327.29c-.159.104-.307.364-.447.437-.837.42.091-2.49.447-.437zM416.901 327.29c2.967.624 5.675-3.328 8.021.398.065.104.206.29.08.948-.48 2.477-1.39-.906-1.956-1.174-1.912-.907-4.446 2.032-6.145-.172zM442.519 310.58c-.034-.395.052.621 0 0zM425.156 329.51c-.101-1.206 1.19-2.144.598-.58.01-.031-.533 1.338-.598.58zM425.982 329.73c-.088-1.044 1.637-2.398.819-.797-.023.049-.754 1.577-.819.797zM427.105 329.66c.016.19 1.187-4.105 1.338-2.32-.039-.455-1.14 4.667-1.338 2.32zM428.672 328.14c-.034-.398.052.621 0 0zM429.495 328.36c-.088-1.049.996-1.654.3-.287-.042.08-.271.626-.3.288zM430.249 328.655c.133 1.574.743-3.591.889-1.887-.068-.79-.653 4.693-.889 1.887zM442.477 316.77c-.039-.448.12-1.427.143-1.165.036.447-.122 1.424-.143 1.164zM431.296 328.66c-.083-.985 1.56-2.035.447-.434-.145.21-.403.95-.447.434zM432.27 328.735c-.083-.982 1.56-2.034.45-.434-.148.213-.405.951-.45.434zM433.172 328.888c-.088-1.047 1.637-2.4.819-.797-.024.049-.754 1.574-.819.797zM434.445 328.673c.04.483 1.388-4.589 1.56-2.539-.07-.85-1.35 5.062-1.56 2.539zM436.314 327.88c.036.442 1.312-4.537 1.486-2.468-.068-.785-1.265 5.087-1.486 2.468zM440.495 324.84c.132 1.577.745-3.594.888-1.886-.065-.79-.652 4.69-.888 1.886z"></path>
    </g>
    <g>
      <path d="M71.193 365.37c.283.156 2.177 1.006 2.18.954-.083 1.32-1.356 2.31-1.411 2.4-.28.448-1.824 2.797-1.19 2.176.795-.772 1.533.654 2.03 1.101.784.707 1.543-1.255 2.392-1.299 4.207-.234 8.23 2.313 13.65 2.094 3.222-.13 6.896-.278 10.407-1.92.974-.457 3.364-4.498 3.419-5.373-.036.595-.608-3.885-.618-3.498-.006.263.296-.878.218-1.237-.733-3.396-1.697.627-2.614 1.518-1.149 1.12-2.372-.089-3.596.423-3.659 1.533-7.175-.109-10.721-.844-3.63-.756-8.788-2.726-12.584.964-.151.148-1.877 1.198-1.858 2.83 0 .075.272-.302.296-.289zm2.253.88c-.037-.443.122-1.42.145-1.16.037.446-.122 1.426-.145 1.16zm.75.3c-.036-.45.123-1.43.146-1.167.037.447-.122 1.427-.145 1.167zM75.78 382.423c-.037-.446.121-1.423.142-1.164.039.45-.12 1.427-.143 1.164zM77.276 381.992c-.159.107-.307.366-.447.437-.837.423.09-2.487.447-.437zM77.276 381.992c2.967.626 5.675-3.328 8.021.4.065.104.205.291.08.949-.48 2.473-1.39-.907-1.956-1.177-1.912-.905-4.446 2.034-6.145-.172zM102.893 365.284c-.033-.395.052.621 0 0zM85.53 384.211c-.1-1.206 1.191-2.14.599-.58.01-.03-.533 1.342-.598.58zM86.357 384.435c-.088-1.045 1.637-2.399.819-.798-.024.047-.754 1.575-.819.798zM87.48 384.364c.015.19 1.187-4.108 1.338-2.323-.04-.452-1.14 4.667-1.338 2.323zM89.047 382.842c-.034-.395.052.623 0 0zM89.87 383.065c-.088-1.05.995-1.655.3-.288-.043.08-.271.626-.3.288zM90.624 383.359c.132 1.575.743-3.594.888-1.89-.067-.79-.652 4.696-.888 1.89zM102.852 371.471c-.04-.447.12-1.424.143-1.164.036.447-.122 1.427-.143 1.164zM91.67 383.364c-.082-.985 1.56-2.037.448-.434-.146.21-.403.951-.447.434zM92.645 383.44c-.083-.983 1.56-2.035.45-.435-.148.211-.405.952-.45.434zM93.547 383.59c-.088-1.044 1.637-2.398.818-.798-.023.05-.753 1.578-.818.798zM94.82 383.377c.04.48 1.388-4.591 1.56-2.541-.07-.847-1.35 5.064-1.56 2.541zM96.688 382.585c.037.441 1.313-4.537 1.487-2.469-.068-.787-1.266 5.085-1.487 2.469zM100.87 379.544c.132 1.578.745-3.593.888-1.889-.065-.79-.652 4.693-.889 1.89z"></path>
    </g>
    <g>
      <path d="M156.101 365.37c.28.156 2.175 1.006 2.178.954-.084 1.32-1.357 2.31-1.411 2.4-.278.448-1.824 2.797-1.188 2.176.793-.772 1.53.654 2.03 1.101.782.707 1.54-1.255 2.39-1.299 4.207-.234 8.232 2.313 13.65 2.094 3.222-.13 6.896-.278 10.406-1.92.975-.457 3.365-4.498 3.42-5.373-.037.595-.608-3.885-.616-3.498-.008.263.293-.878.218-1.237-.735-3.396-1.697.627-2.616 1.518-1.149 1.12-2.373-.089-3.594.423-3.661 1.533-7.174-.109-10.721-.844-3.63-.756-8.79-2.726-12.587.964-.15.148-1.876 1.198-1.858 2.83 0 .075.276-.302.3-.289zm2.253.88c-.039-.443.122-1.42.143-1.16.039.446-.122 1.426-.143 1.16zm.75.3c-.038-.45.123-1.43.144-1.167.039.447-.122 1.427-.143 1.167zM160.685 382.423c-.037-.446.122-1.423.145-1.164.037.45-.122 1.427-.145 1.164zM162.181 381.992c-.158.107-.306.366-.447.437-.836.423.094-2.487.447-.437zM162.181 381.992c2.968.626 5.675-3.328 8.022.4.065.104.208.291.08.949-.48 2.473-1.39-.907-1.954-1.177-1.912-.905-4.448 2.034-6.148-.172zM187.8 365.284c-.035-.395.051.621 0 0zM170.437 384.211c-.102-1.206 1.19-2.14.597-.58.01-.03-.532 1.342-.597.58zM171.263 384.435c-.089-1.045 1.637-2.399.821-.798-.026.047-.756 1.575-.821.798zM172.385 384.364c.019.19 1.188-4.108 1.339-2.323-.04-.452-1.139 4.667-1.339 2.323zM173.952 382.842c-.034-.395.052.623 0 0zM174.779 383.065c-.089-1.05.992-1.655.296-.288-.042.08-.268.626-.296.288zM175.53 383.359c.132 1.575.745-3.594.888-1.89-.067-.79-.652 4.696-.889 1.89zM187.758 371.471c-.04-.447.122-1.424.142-1.164.04.447-.122 1.427-.142 1.164zM176.58 383.364c-.084-.985 1.556-2.037.446-.434-.148.21-.405.951-.447.434zM177.554 383.44c-.084-.983 1.556-2.035.447-.435-.149.211-.406.952-.447.434zM178.453 383.59c-.089-1.044 1.637-2.398.82-.798-.025.05-.755 1.578-.82.798zM179.726 383.377c.039.48 1.387-4.591 1.559-2.541-.07-.847-1.346 5.064-1.56 2.541zM181.594 382.585c.04.441 1.312-4.537 1.486-2.469-.065-.787-1.265 5.085-1.486 2.469zM185.775 379.544c.133 1.578.746-3.593.891-1.889-.067-.79-.655 4.693-.891 1.89z"></path>
    </g>
    <g>
      <path d="M241.007 365.37c.28.156 2.175 1.006 2.177.954-.083 1.32-1.356 2.31-1.41 2.4-.279.448-1.825 2.797-1.188 2.176.792-.772 1.53.654 2.03 1.101.781.707 1.54-1.255 2.39-1.299 4.21-.234 8.232 2.313 13.65 2.094 3.224-.13 6.895-.278 10.408-1.92.972-.457 3.363-4.498 3.42-5.373-.04.595-.608-3.885-.618-3.498-.008.263.296-.878.218-1.237-.736-3.396-1.697.627-2.617 1.518-1.148 1.12-2.372-.089-3.593.423-3.659 1.533-7.175-.109-10.721-.844-3.63-.756-8.788-2.726-12.585.964-.153.148-1.878 1.198-1.86 2.83 0 .075.275-.302.299-.289zm2.253.88c-.04-.443.122-1.42.143-1.16.038.446-.123 1.426-.143 1.16zm.75.3c-.038-.45.123-1.43.143-1.167.04.447-.122 1.427-.142 1.167zM245.593 382.423c-.039-.446.12-1.423.143-1.164.036.45-.122 1.427-.143 1.164zM247.09 381.992c-.161.107-.307.366-.45.437-.837.423.094-2.487.45-.437zM247.09 381.992c2.964.626 5.672-3.328 8.018.4.068.104.208.291.08.949-.477 2.473-1.39-.907-1.953-1.177-1.913-.905-4.449 2.034-6.145-.172zM272.707 365.284c-.033-.395.052.621 0 0zM255.342 384.211c-.101-1.206 1.193-2.14.598-.58.01-.03-.533 1.342-.598.58zM256.169 384.435c-.089-1.045 1.64-2.399.82-.798-.025.047-.753 1.575-.82.798zM257.294 384.364c.015.19 1.184-4.108 1.335-2.323-.039-.452-1.138 4.667-1.335 2.323zM258.858 382.842c-.034-.395.052.623 0 0zM259.684 383.065c-.088-1.05.995-1.655.299-.288-.042.08-.27.626-.299.288zM260.435 383.359c.133 1.575.746-3.594.889-1.89-.065-.79-.652 4.696-.889 1.89zM272.663 371.471c-.036-.447.122-1.424.143-1.164.04.447-.12 1.427-.143 1.164zM261.485 383.364c-.083-.985 1.559-2.037.447-.434-.146.21-.403.951-.447.434zM262.46 383.44c-.084-.983 1.558-2.035.446-.435-.145.211-.403.952-.447.434zM263.358 383.59c-.088-1.044 1.64-2.398.821-.798-.026.05-.756 1.578-.82.798zM264.632 383.377c.041.48 1.387-4.591 1.561-2.541-.073-.847-1.348 5.064-1.561 2.541zM266.502 382.585c.037.441 1.31-4.537 1.484-2.469-.065-.787-1.263 5.085-1.484 2.469zM270.683 379.544c.133 1.578.746-3.593.889-1.889-.068-.79-.652 4.693-.889 1.89z"></path>
    </g>
    <g>
      <path d="M325.912 365.37c.284.156 2.175 1.006 2.18.954-.085 1.32-1.358 2.31-1.413 2.4-.278.448-1.822 2.797-1.187 2.176.795-.772 1.533.654 2.029 1.101.782.707 1.54-1.255 2.39-1.299 4.21-.234 8.232 2.313 13.652 2.094 3.222-.13 6.894-.278 10.407-1.92.972-.457 3.365-4.498 3.42-5.373-.04.595-.608-3.885-.619-3.498-.005.263.296-.878.218-1.237-.735-3.396-1.696.627-2.614 1.518-1.15 1.12-2.372-.089-3.596.423-3.658 1.533-7.174-.109-10.72-.844-3.63-.756-8.789-2.726-12.585.964-.153.148-1.879 1.198-1.86 2.83.002.075.275-.302.298-.289zm2.253.88c-.036-.443.122-1.42.146-1.16.036.446-.122 1.426-.146 1.16zm.751.3c-.036-.45.122-1.43.146-1.167.036.447-.122 1.427-.146 1.167zM330.499 382.423c-.04-.446.122-1.423.143-1.164.039.45-.123 1.427-.143 1.164zM331.995 381.992c-.16.107-.306.366-.447.437-.839.423.091-2.487.447-.437z"></path>
      <path d="M331.995 381.992c2.965.626 5.675-3.328 8.022.4.065.104.205.291.078.949-.479 2.473-1.388-.907-1.954-1.177-1.913-.905-4.446 2.034-6.146-.172zM357.613 365.284c-.034-.395.052.621 0 0zM340.25 384.211c-.1-1.206 1.19-2.14.596-.58.012-.03-.53 1.342-.596.58zM341.074 384.435c-.086-1.045 1.64-2.399.821-.798-.023.047-.753 1.575-.82.798zM342.2 384.364c.015.19 1.184-4.108 1.335-2.323-.037-.452-1.138 4.667-1.336 2.323zM343.766 382.842c-.034-.395.052.623 0 0zM344.59 383.065c-.089-1.05.995-1.655.299-.288-.042.08-.27.626-.3.288zM345.34 383.359c.133 1.575.747-3.594.892-1.89-.068-.79-.655 4.696-.891 1.89zM357.571 371.471c-.038-.447.12-1.424.143-1.164.037.447-.122 1.427-.143 1.164zM346.39 383.364c-.083-.985 1.56-2.037.447-.434-.145.21-.402.951-.446.434zM347.365 383.44c-.083-.983 1.559-2.035.447-.435-.146.211-.403.952-.447.434zM348.267 383.59c-.089-1.044 1.637-2.398.818-.798-.023.05-.753 1.578-.818.798zM349.537 383.377c.042.48 1.39-4.591 1.562-2.541-.07-.847-1.349 5.064-1.562 2.541zM351.408 382.585c.036.441 1.312-4.537 1.486-2.469-.067-.787-1.265 5.085-1.486 2.469zM355.589 379.544c.132 1.578.746-3.593.889-1.889-.065-.79-.653 4.693-.89 1.89z"></path>
    </g>
    <g>
      <path d="M410.818 365.37c.283.156 2.178 1.006 2.18.954-.083 1.32-1.356 2.31-1.41 2.4-.281.448-1.825 2.797-1.19 2.176.794-.772 1.532.654 2.029 1.101.784.707 1.543-1.255 2.393-1.299 4.206-.234 8.229 2.313 13.65 2.094 3.221-.13 6.895-.278 10.406-1.92.974-.457 3.365-4.498 3.42-5.373-.04.595-.609-3.885-.62-3.498-.004.263.297-.878.22-1.237-.734-3.396-1.698.627-2.615 1.518-1.148 1.12-2.372-.089-3.596.423-3.659 1.533-7.174-.109-10.721-.844-3.63-.756-8.788-2.726-12.584.964-.151.148-1.876 1.198-1.858 2.83 0 .075.273-.302.296-.289zm2.253.88c-.036-.443.122-1.42.145-1.16.037.446-.122 1.426-.145 1.16zm.75.3c-.036-.45.123-1.43.146-1.167.037.447-.122 1.427-.145 1.167zM415.404 382.423c-.036-.446.122-1.423.143-1.164.04.45-.12 1.427-.143 1.164zM416.901 381.992c-.159.107-.307.366-.447.437-.837.423.091-2.487.447-.437zM416.901 381.992c2.967.626 5.675-3.328 8.021.4.065.104.206.291.08.949-.48 2.473-1.39-.907-1.956-1.177-1.912-.905-4.446 2.034-6.145-.172zM442.519 365.284c-.034-.395.052.621 0 0zM425.156 384.211c-.101-1.206 1.19-2.14.598-.58.01-.03-.533 1.342-.598.58zM425.982 384.435c-.088-1.045 1.637-2.399.819-.798-.023.047-.754 1.575-.819.798zM427.105 384.364c.016.19 1.187-4.108 1.338-2.323-.039-.452-1.14 4.667-1.338 2.323zM428.672 382.842c-.034-.395.052.623 0 0zM429.495 383.065c-.088-1.05.996-1.655.3-.288-.042.08-.271.626-.3.288zM430.249 383.359c.133 1.575.743-3.594.889-1.89-.068-.79-.653 4.696-.889 1.89zM442.477 371.471c-.039-.447.12-1.424.143-1.164.036.447-.122 1.427-.143 1.164zM431.296 383.364c-.083-.985 1.56-2.037.447-.434-.145.21-.403.951-.447.434zM432.27 383.44c-.083-.983 1.56-2.035.45-.435-.148.211-.405.952-.45.434zM433.172 383.59c-.088-1.044 1.637-2.398.819-.798-.024.05-.754 1.578-.819.798zM434.445 383.377c.04.48 1.388-4.591 1.56-2.541-.07-.847-1.35 5.064-1.56 2.541zM436.314 382.585c.036.441 1.312-4.537 1.486-2.469-.068-.787-1.265 5.085-1.486 2.469zM440.495 379.544c.132 1.578.745-3.593.888-1.889-.065-.79-.652 4.693-.888 1.89z"></path>
    </g>
    <g>
      <path d="M71.193 420.072c.283.158 2.177 1.005 2.18.956-.083 1.32-1.356 2.31-1.411 2.398-.28.447-1.824 2.796-1.19 2.178.795-.772 1.533.652 2.03 1.102.784.704 1.543-1.255 2.392-1.302 4.207-.232 8.23 2.315 13.65 2.097 3.222-.13 6.896-.28 10.407-1.923.974-.457 3.364-4.495 3.419-5.374-.036.598-.608-3.884-.618-3.495-.006.263.296-.88.218-1.236-.733-3.396-1.697.626-2.614 1.517-1.149 1.117-2.372-.09-3.596.421-3.659 1.536-7.175-.106-10.721-.844-3.63-.757-8.788-2.724-12.584.966-.151.146-1.877 1.198-1.858 2.83 0 .073.272-.302.296-.291zm2.253.883c-.037-.444.122-1.424.145-1.161.037.447-.122 1.426-.145 1.161zm.75.3c-.036-.45.123-1.43.146-1.168.037.447-.122 1.427-.145 1.167zM75.78 437.125c-.037-.447.121-1.424.142-1.161.039.447-.12 1.424-.143 1.161zM77.276 436.696c-.159.107-.307.367-.447.437-.837.42.09-2.49.447-.437zM77.276 436.696c2.967.627 5.675-3.328 8.021.398.065.104.205.291.08.948-.48 2.477-1.39-.906-1.956-1.174-1.912-.907-4.446 2.034-6.145-.172zM102.893 419.986c-.033-.395.052.624 0 0zM85.53 438.915c-.1-1.205 1.191-2.143.599-.579.01-.031-.533 1.338-.598.58zM86.357 439.139c-.088-1.047 1.637-2.398.819-.798-.024.047-.754 1.575-.819.798zM87.48 439.069c.015.187 1.187-4.108 1.338-2.323-.04-.452-1.14 4.667-1.338 2.323zM89.047 437.546c-.034-.397.052.621 0 0zM89.87 437.77c-.088-1.05.995-1.656.3-.291-.043.083-.271.626-.3.29zM90.624 438.06c.132 1.578.743-3.59.888-1.886-.067-.79-.652 4.693-.888 1.887zM102.852 426.175c-.04-.446.12-1.426.143-1.164.036.447-.122 1.427-.143 1.164zM91.67 438.068c-.082-.984 1.56-2.037.448-.434-.146.208-.403.949-.447.434zM92.645 438.144c-.083-.985 1.56-2.037.45-.437-.148.213-.405.954-.45.437zM93.547 438.294c-.088-1.047 1.637-2.398.818-.797-.023.05-.753 1.574-.818.797zM94.82 438.081c.04.481 1.388-4.591 1.56-2.54-.07-.848-1.35 5.063-1.56 2.54zM96.688 437.289c.037.439 1.313-4.54 1.487-2.471-.068-.785-1.266 5.087-1.487 2.47zM100.87 434.246c.132 1.58.745-3.593.888-1.886-.065-.79-.652 4.692-.889 1.886z"></path>
    </g>
    <g>
      <path d="M156.101 420.072c.28.158 2.175 1.005 2.178.956-.084 1.32-1.357 2.31-1.411 2.398-.278.447-1.824 2.796-1.188 2.178.793-.772 1.53.652 2.03 1.102.782.704 1.54-1.255 2.39-1.302 4.207-.232 8.232 2.315 13.65 2.097 3.222-.13 6.896-.28 10.406-1.923.975-.457 3.365-4.495 3.42-5.374-.037.598-.608-3.884-.616-3.495-.008.263.293-.88.218-1.236-.735-3.396-1.697.626-2.616 1.517-1.149 1.117-2.373-.09-3.594.421-3.661 1.536-7.174-.106-10.721-.844-3.63-.757-8.79-2.724-12.587.966-.15.146-1.876 1.198-1.858 2.83 0 .073.276-.302.3-.291zm2.253.883c-.039-.444.122-1.424.143-1.161.039.447-.122 1.426-.143 1.161zm.75.3c-.038-.45.123-1.43.144-1.168.039.447-.122 1.427-.143 1.167zM160.685 437.125c-.037-.447.122-1.424.145-1.161.037.447-.122 1.424-.145 1.161zM162.181 436.696c-.158.107-.306.367-.447.437-.836.42.094-2.49.447-.437zM162.181 436.696c2.968.627 5.675-3.328 8.022.398.065.104.208.291.08.948-.48 2.477-1.39-.906-1.954-1.174-1.912-.907-4.448 2.034-6.148-.172zM187.8 419.986c-.035-.395.051.624 0 0zM170.437 438.915c-.102-1.205 1.19-2.143.597-.579.01-.031-.532 1.338-.597.58zM171.263 439.139c-.089-1.047 1.637-2.398.821-.798-.026.047-.756 1.575-.821.798zM172.385 439.069c.019.187 1.188-4.108 1.339-2.323-.04-.452-1.139 4.667-1.339 2.323zM173.952 437.546c-.034-.397.052.621 0 0zM174.779 437.77c-.089-1.05.992-1.656.296-.291-.042.083-.268.626-.296.29zM175.53 438.06c.132 1.578.745-3.59.888-1.886-.067-.79-.652 4.693-.889 1.887zM187.758 426.175c-.04-.446.122-1.426.142-1.164.04.447-.122 1.427-.142 1.164zM176.58 438.068c-.084-.984 1.556-2.037.446-.434-.148.208-.405.949-.447.434zM177.554 438.144c-.084-.985 1.556-2.037.447-.437-.149.213-.406.954-.447.437zM178.453 438.294c-.089-1.047 1.637-2.398.82-.797-.025.05-.755 1.574-.82.797zM179.726 438.081c.039.481 1.387-4.591 1.559-2.54-.07-.848-1.346 5.063-1.56 2.54zM181.594 437.289c.04.439 1.312-4.54 1.486-2.471-.065-.785-1.265 5.087-1.486 2.47zM185.775 434.246c.133 1.58.746-3.593.891-1.886-.067-.79-.655 4.692-.891 1.886z"></path>
    </g>
  </g>
</svg>
