<svg xmlns="http://www.w3.org/2000/svg" xml:space="preserve" viewBox="0 0 512 512" id="control">
  <g fill-rule="evenodd" clip-rule="evenodd">
    <path d="M506.645 282.617c-.553 3.393-1.897 11.638-3.599 22.097l-4.378 16.668c-1.359 5.943-3.469 11.883-5.766 17.651-8.156 23.487-20.665 43.121-20.665 43.121.14-1.094 2.609-5.025 5.215-10.874 2.578-5.92 5.828-13.38 9.056-20.785 2.614-7.686 5.207-15.305 7.2-21.161l2.64-10.854c1.873-6.454 5.659-28.13 6.111-44.493.263-16.37.372-27.169-.08-12.025-.161 38.142-12.361 72.163-22.495 93.311-16.118 33.28-36.406 64.283-67.738 90.365-39.098 31.535-87.306 51.083-137.557 54.203-25.08 2.269-50.547-.722-75.364-6.478-24.922-5.732-49.014-16.123-71.207-30.123-22.224-13.959-42.71-31.576-60.12-52.607-17.144-21.227-31.201-45.693-40.831-72.582-19.246-53.501-20.805-117.71 4.134-177.198 14.712-35.224 38.664-67.933 69.424-94.117 31.233-25.499 69.331-44.483 110.412-52.21 40.967-7.3 84.552-5.662 124.542 8.268l14.915 5.358c4.9 1.951 9.58 4.435 14.382 6.628 9.773 4.106 18.477 10.178 27.626 15.422 17.254 12.03 34.029 25.07 47.733 40.987l6.457 6.928c2.081 2.673 4.298 5.526 6.626 8.52 2.339 2.988 4.786 6.116 7.322 9.354 2.368 3.35 4.55 6.992 6.933 10.615 2.307 3.669 4.846 7.32 7.094 11.19 2.06 3.976 4.147 7.994 6.233 12.019 4.534 7.901 7.543 16.492 10.893 24.596 6.174 16.383 10.31 32.148 12.28 43.98 2.679 11.756 2.89 19.577 3.263 20.222-.525-.881.705-8.396.273-15.705-.104-7.328-.19-14.616-.418-14.821-.307-.3 3.082 14.33 2.858 10.505-.265-4.57-.68-9.323-1.224-14.216-.72-4.856-2.063-9.754-3.253-14.808-2.1-10.212-6.309-20.307-10.48-30.643-9.257-20.281-21.244-40.528-35.743-58.018C424.517 56.534 372.697 19.18 313.12 6.928c-44.095-9.866-90.001-6.966-132.345 5.683C138.84 26.51 99.976 49.968 70.502 82.5c-15.362 15.68-27.45 34.147-38.285 53.077-4.656 9.882-10.074 19.444-13.455 29.871-1.829 5.148-3.975 10.196-5.532 15.43l-4.173 15.855c-1.585 5.249-2.45 10.643-3.24 16.053l-2.52 16.206-.925 16.368c-.377 5.459-.645 10.918-.2 16.38l.75 16.396c.279 5.462 1.437 10.846 2.126 16.276 1.162 10.927 4.233 21.482 6.894 32.127 12.35 43.071 38.396 87.74 78.048 122.011 19.823 17.004 42.617 31.527 67.533 42.372 25.085 10.46 52.142 16.862 79.586 19.13 27.473 2.609 55.347-.48 81.905-6.998 26.592-6.568 51.986-17.42 74.25-32.116 22.297-14.561 42.27-31.872 58.297-51.529 15.817-19.758 28.788-40.803 37.706-62.487.98-1.61 3.186-7.969 6.124-16.486 3.365-8.38 5.785-19.44 8.263-30.165 2.334-10.755 3.025-21.539 4.075-29.355.163-7.925-.01-13.038-.413-12.83l-.226 6.846c-.026 3.495-.247 7.117-.445 7.684zM470.418 385.29c1.336-1.343-1.878 5.829-2.663 6.613-1.325 1.32 1.886-5.841 2.663-6.613zm-21.299 29.596c1.582-1.078-2.892 5.314-3.82 5.943-1.567 1.063 2.908-5.322 3.82-5.943z"></path>
    <path d="M383.099 452.072c1.717-.52-3.992 4.085-4.997 4.391-1.694.507 4.004-4.097 4.997-4.39zM321.436 480.454c7.117-1.585 13.085-4.89 19.147-6.92 9.006-3.12 12.876-5.503 14.032-5.708 1.104-.332-.788.868-4.24 2.77-3.423 1.972-8.799 3.731-14.09 5.76-5.324 1.955-10.72 3.8-14.85 4.098z"></path>
    <path d="M321.436 480.454c-65.23 18.345-134.273 7.728-186.756-24.032-53.028-31.355-88.933-82.23-102.557-133.764-.641-2.939-2.047-9.177.013-3.78 1.656 5.183 4.55 11.199 6.993 18.061 2.227 6.964 5.612 14.159 8.912 21.564 6.517 14.822 15.092 29.375 22.934 39.595 13.26 17.175 29.736 34.515 49.928 48.128 19.938 13.878 42.594 24.989 66.138 32.404 23.728 6.923 48.037 9.87 71.053 10.178 11.48-.701 22.71-.556 33.268-2.56 5.277-.88 10.567-1.135 15.52-2.416 4.976-1.156 9.83-2.281 14.554-3.378zM508.103 249.5c.314-1.64-.496 2.562 0 0zM31.245 311.89c.094 2.36-4.357-10.445-5.64-21.135-1.81-10.583-2.87-18.407-.04-5.2l2.393 11.982c1.011 6.355 3.485 12.813 3.287 14.353zM25.129 275.203c-.213 1.014-.689-3.084-1.25-9.255-.265-3.11-.57-6.71-.884-10.425-.075-3.734.161-7.603.24-11.215.376-14.475 1.496-24.687.901-6.147l-.07 17.856c.756 8.738 1.38 17.664 1.063 19.186zM26.194 224.592c.075-.172.366-3.591.8-8.757.244-2.58.4-5.62.81-8.866.625-3.222 1.292-6.67 1.965-10.15 2.087-14.192 7.884-28.278 9.55-31.263-.253.363-1.222 3.713-2.61 8.61-1.343 4.914-3.458 11.26-4.432 18.143-1.076 6.836-3.053 13.657-3.578 19.587-.743 5.883-1.583 10.565-2.505 12.696zM44.36 156.399c-1.02 1.2 1.595-1.879 0 0zM62.754 123.804c-1.643 1.318 4.812-7.966 9.434-14.353 2.243-3.243 4.23-5.582 4.451-5.527.097.013-.356.535-1.34 1.918l-4.66 6.953c-1.07 1.575-6.83 10.173-7.885 11.01zM84.266 97.42c2.611-1.681 7.408-8.717 13.382-14.88 2.866-3.197 5.763-6.427 8.317-9.054 2.66-2.502 5.15-4.186 6.699-4.867-1.523.528-6.798 5.914-12.19 12.439-2.78 3.167-5.796 6.387-8.673 9.209-2.63 3.066-5.215 5.64-7.535 7.153zM501.812 247.6c.356-1.831 1.718 5.772 1.51 6.837-.356 1.79-1.718-5.797-1.51-6.836zM119.62 65.782c-.881.39 2.078-2.255 6.574-5.735l16.014-10.282c2.46-1.691 4.87-2.715 6.52-3.536 1.66-.8 2.644-1.245 2.595-1.159-.05.086-1.136.702-3.604 2.024-2.56 1.16-6.117 3.737-11.42 7.148-2.744 1.822-6.592 4.379-9.91 6.58-3.155 2.458-5.818 4.591-6.77 4.96zM157.598 43.44c-.95.185 2.497-1.75 7.523-4.42 5.217-2.205 12.132-4.856 17.674-7.012 2.752-1.14 5.228-1.954 7.039-2.326 1.785-.457 2.837-.701 2.77-.629-.065.076-1.247.468-3.926 1.279-2.705.727-6.668 2.645-12.543 4.921-3.037 1.27-7.296 3.053-10.965 4.592-3.534 1.873-6.574 3.4-7.572 3.596zM195.844 29.6c-2.079 0 15.682-5.66 30.134-7.445 7.114-1.526 13.371-1.442 15.434-1.562 2.08 0 0 .25-9.234 1.206-.559.106-9.012 1.746-17.605 3.411-8.655 1.463-17.141 4.628-18.729 4.39zM252.739 21.297c.46.047 4.604-.447 10.726-.33 6.096.187 14.291-.738 22.531.296 16.656.881 33.722 5.039 37.266 6.982-.73-.405-4.934-1.263-10.918-2.395-5.925-1.43-13.831-2.082-21.89-2.674-8.005-1.03-16.268-.902-23.091-.98-6.816-.195-12.205-.597-14.624-.899zM336.07 34.406c.359.25 4.126 1.385 9.72 3.027 5.559 1.73 12.548 4.93 19.933 7.837 14.39 6.574 28.767 15.33 31.147 18.846-.512-.584-3.801-2.912-8.705-5.898-5.09-2.611-11.791-6.052-18.596-9.544-7.045-3.04-14.377-5.878-20.315-8.622-6.083-2.413-11.08-4.092-13.184-5.646zM474.017 159.335c.925 2.939 4.246 10.794 8.208 18.615 4.189 7.746 6.353 16.355 6.626 19.71-.135-1.552-2.733-8.755-6.311-16.514-3.95-7.65-7.338-16.385-8.523-21.81z"></path>
    <path d="M458.689 277.261c-.455 2.744-1.554 9.401-2.952 17.851-2.36 8.22-4.282 18.478-8.255 27.71-6.631 18.958-16.76 34.793-16.76 34.793.06-.915 1.998-4.119 4.054-8.864 2.055-4.817 4.625-10.843 7.174-16.824l5.711-17.09 2.084-8.757c1.468-5.212 4.381-22.697 4.636-35.863.101-13.176.101-21.847-.2-9.676.02 30.684-10.067 57.994-18.28 74.92-13.055 26.641-29.027 51.757-54.229 72.76-31.43 25.363-70.209 41.06-110.604 43.529-20.16 1.803-40.626-.626-60.561-5.275-20.018-4.633-39.363-13.008-57.173-24.277-17.835-11.235-34.265-25.405-48.224-42.305-13.743-17.058-25.004-36.713-32.714-58.298-15.406-42.951-16.63-94.457 3.368-142.19 11.8-28.263 31.01-54.514 55.686-75.533 25.057-20.468 55.62-35.718 88.588-41.946 32.878-5.883 67.868-4.607 99.997 6.532 16.23 5.085 31.363 13.047 45.763 21.941 13.881 9.64 27.385 20.091 38.433 32.86l5.21 5.553 5.356 6.828c1.894 2.39 3.876 4.898 5.932 7.491 1.92 2.685 3.692 5.603 5.63 8.508 1.874 2.938 3.94 5.864 5.769 8.97l5.088 9.64c3.697 6.34 6.176 13.236 8.93 19.75 5.083 13.166 8.534 25.857 10.223 35.396 2.258 9.476 2.51 15.79 2.855 16.31-.01-1.375 1.125-24.347.54-24.792-.296-.234 2.667 11.597 2.552 8.487a182.265 182.265 0 0 0-.82-11.574c-.549-3.954-1.614-7.94-2.573-12.048-1.697-8.302-5.15-16.498-8.6-24.87-7.643-16.432-17.577-32.735-29.386-46.857-28.372-35.806-70.21-66.233-118.537-76.09-35.744-7.92-72.896-5.536-107.187 4.717-33.956 11.261-65.426 30.245-89.318 56.565-49.404 51.443-67.577 129.263-47.657 197.708 9.98 34.935 31.056 71.188 63.195 99.025 16.066 13.813 34.552 25.618 54.77 34.431 20.35 8.505 42.315 13.718 64.588 15.562 22.295 2.12 44.92-.382 66.476-5.685 21.585-5.342 42.187-14.17 60.239-26.12 18.077-11.838 34.25-25.918 47.202-41.89 12.787-16.059 23.235-33.159 30.38-50.76 1.22-2.737 8.178-20.273 11.499-37.83 1.842-8.716 2.351-17.452 3.134-23.779.07-6.415-.143-10.552-.544-10.388l-.16 5.534c-.008 2.825-.17 5.753-.328 6.21zm-29.424 82.892c1.153-1.04-1.284 4.854-1.962 5.462-1.144 1.021 1.294-4.867 1.962-5.462zm-17.24 23.861c1.345-.815-2.129 4.47-2.916 4.948-1.33.8 2.14-4.48 2.915-4.948z"></path>
    <path d="M357.076 411.459c1.416-.335-3.017 3.495-3.846 3.692-1.393.322 3.03-3.505 3.846-3.692zM308.13 434.086c5.648-1.276 10.37-3.96 15.18-5.584 14.01-5.615 13.186-5.535 7.844-2.175-5.605 2.671-16.48 7.26-23.025 7.759z"></path>
    <path d="M308.13 434.086c-51.829 14.507-106.689 6.26-148.497-18.927-42.23-24.843-70.864-65.425-81.312-106.48-.489-2.341-1.567-7.302.197-3.056 1.432 4.077 3.78 8.824 5.722 14.263 1.767 5.519 4.415 11.233 6.98 17.134 5.056 11.802 11.71 23.463 17.92 31.601 10.498 13.676 23.597 27.46 39.657 38.254 15.856 11.007 33.87 19.795 52.574 25.652 18.854 5.46 38.15 7.77 56.424 8.029 18.275-.426 35.425-2.606 50.334-6.47zM459.884 250.5c.33-1.327-.52 2.071 0 0zM77.988 300.034c-1.468 4.163-9.526-41.798-4.623-20.855l2.014 9.482c.845 5.03 2.843 10.133 2.609 11.373zM73.184 270.952c-.224.809-.658-2.434-1.154-7.327l-.774-8.268c-.081-2.965.093-6.036.14-8.902.244-11.498 1.14-19.598.837-4.872l.09 14.164c.663 6.924 1.193 13.992.86 15.205zM74.015 230.838c.068-.135.252-2.848.522-6.958.161-2.05.242-4.472.523-7.055.457-2.57.943-5.319 1.434-8.084 1.486-11.31 5.984-22.564 7.473-24.87-.195.648-3.456 10.537-5.223 21.36-2.27 10.744-3.056 22.255-4.729 25.607zM88.122 176.667c-.884.92 1.385-1.435 0 0zM102.761 150.818c-2.928 1.889 20.463-29.62 6.213-8.773-.837 1.263-5.319 8.149-6.213 8.773zM119.88 129.919c2.193-1.224 5.854-6.93 10.482-11.958 2.213-2.607 4.456-5.241 6.46-7.367 2.086-2.024 4.068-3.362 5.352-3.835-1.26.353-5.309 4.828-9.458 10.15-2.141 2.582-4.48 5.194-6.743 7.444-2.068 2.45-4.145 4.464-6.093 5.566zM453.614 248.998c.374-1.475 1.66 4.636 1.44 5.49-.374 1.44-1.658-4.653-1.44-5.49zM147.935 104.815c-.73.27 1.587-1.87 5.132-4.672a32188 32188 0 0 0 12.667-8.25c1.949-1.353 3.861-2.17 5.17-2.821 1.323-.635 2.105-.985 2.072-.907-.034.078-.887.584-2.838 1.657-2.021.938-4.83 3.017-9.019 5.764-2.152 1.46-5.202 3.531-7.81 5.303-2.485 1.977-4.59 3.68-5.374 3.926zM178.071 87.107c-.774.099 1.938-1.484 5.909-3.645 4.126-1.788 9.606-3.927 14.003-5.657 2.18-.92 4.144-1.57 5.584-1.866 1.418-.361 2.255-.55 2.206-.48-.047.07-.983.4-3.105 1.065-2.142.6-5.275 2.16-9.924 4.001-2.39 1.032-5.768 2.49-8.663 3.737-2.79 1.515-5.194 2.739-6.01 2.845zM208.418 76.157c-1.681-.104 12.386-4.718 23.861-6.192 11.378-1.92 19.652-1.52 4.94-.163l-13.951 2.855c-6.855 1.216-13.57 3.768-14.85 3.5zM253.544 69.526c.71-.054 13.203-.894 26.44-.408 13.262.504 26.903 3.672 29.663 5.415-1.203-.434-13.263-3.33-26.156-3.645-6.371-.715-12.935-.51-18.347-.533-5.405-.12-9.677-.462-11.6-.829zM319.713 79.772c.28.22 3.284 1.078 7.759 2.31 4.443 1.302 10.043 3.752 15.964 5.979 11.535 5.061 23.09 11.924 24.86 14.894-.385-.5-3.033-2.318-6.98-4.625-4.085-2.004-9.492-4.654-14.946-7.328-5.651-2.32-11.51-4.485-16.237-6.631-4.841-1.884-8.793-3.238-10.42-4.6zM429.828 178.724c.767 4.795 13.024 24.524 12.192 30.44-.031-1.257-2.336-6.953-5.363-13.077-3.329-6.039-6.143-12.927-6.829-17.363z"></path>
    <path d="M263.483 58.636c-.158.221-1.005 1.7-.956 1.7-1.32-.065-2.31-1.058-2.398-1.1-.447-.218-2.796-1.423-2.178-.927.772.618-.652 1.195-1.101 1.582-.705.611 1.257 1.203 1.301 1.866.234 3.284-2.312 6.423-2.094 10.65.127 2.514.278 5.38 1.92 8.118.458.762 4.496 2.625 5.374 2.669-.598-.029 3.884-.473 3.497-.48-.262-.006.879.228 1.237.168 3.396-.572-.626-1.322-1.517-2.04-1.12-.896.088-1.85-.424-2.803-1.533-2.856.11-5.6.845-8.365.756-2.832 2.725-6.857-.964-9.819-.149-.117-1.2-1.466-2.833-1.45-.072 0 .302.213.291.231zm-.883 1.76c.444-.03 1.424.093 1.161.111-.447.029-1.424-.096-1.161-.112zm-.296.584c.447-.028 1.426.096 1.166.114-.447.029-1.426-.096-1.166-.114zM246.43 62.214c.447-.028 1.424.096 1.161.112-.446.031-1.423-.093-1.161-.112zM246.861 63.384c-.106-.125-.366-.242-.439-.351-.42-.652 2.49.073.44.35zM246.861 63.384c-.626 2.312 3.326 4.425-.4 6.257-.104.052-.29.16-.948.062-2.477-.374.907-1.084 1.174-1.525.907-1.492-2.032-3.47.174-4.794zM263.57 83.368c.394-.026-.622.042 0 0zM244.64 69.822c1.205-.077 2.143.928.58.466.03.007-1.339-.416-.58-.466zM244.419 70.467c1.044-.068 2.398 1.278.798.64-.05-.02-1.578-.588-.798-.64zM244.489 71.343c-.19.013 4.105.925 2.32 1.044.455-.031-4.666-.889-2.32-1.044zM246.009 72.564c.398-.026-.621.041 0 0zM245.788 73.208c1.05-.067 1.655.777.289.234-.08-.034-.627-.21-.289-.234zM245.495 73.795c-1.575.104 3.59.582 1.886.694.79-.052-4.693-.51-1.886-.694zM257.38 83.334c.447-.028 1.426.096 1.164.115-.447.028-1.424-.097-1.164-.115zM245.49 74.614c.984-.065 2.037 1.216.433.348-.21-.114-.95-.314-.434-.348zM245.414 75.373c.982-.063 2.035 1.216.434.35-.213-.114-.951-.317-.434-.35zM245.26 76.077c1.048-.07 2.402 1.276.798.64-.049-.022-1.574-.59-.797-.64zM245.476 77.07c-.483.03 4.59 1.083 2.539 1.216.85-.055-5.062-1.05-2.539-1.217zM246.269 78.527c-.442.029 4.537 1.024 2.468 1.16.785-.053-5.087-.988-2.468-1.16zM249.309 81.788c-1.577.104 3.594.582 1.886.697.79-.052-4.69-.51-1.886-.697zM263.483 426.418c-.158.22-1.005 1.7-.956 1.7-1.32-.066-2.31-1.058-2.398-1.1-.447-.218-2.796-1.424-2.178-.927.772.618-.652 1.195-1.101 1.582-.705.61 1.257 1.203 1.301 1.866.234 3.284-2.312 6.423-2.094 10.65.127 2.513.278 5.38 1.92 8.118.458.761 4.496 2.624 5.374 2.669-.598-.03 3.884-.473 3.497-.481-.262-.005.879.228 1.237.169 3.396-.572-.626-1.323-1.517-2.04-1.12-.896.088-1.85-.424-2.804-1.533-2.855.11-5.6.845-8.364.756-2.832 2.725-6.857-.964-9.82-.149-.119-1.2-1.465-2.833-1.45-.072 0 .302.214.291.232zm-.883 1.76c.444-.03 1.424.093 1.161.11-.447.03-1.424-.095-1.161-.11zm-.296.584c.447-.029 1.426.096 1.166.111-.447.032-1.426-.093-1.166-.111zM246.43 429.996c.447-.029 1.424.096 1.161.112-.446.03-1.423-.094-1.161-.112zM246.861 431.163c-.106-.123-.366-.24-.439-.349-.42-.652 2.49.073.44.349zM246.861 431.163c-.626 2.315 3.326 4.427-.4 6.26-.104.049-.29.16-.948.062-2.477-.375.907-1.084 1.174-1.526.907-1.491-2.032-3.469.174-4.796zM263.57 451.15c.394-.026-.622.041 0 0zM244.64 437.604c1.205-.078 2.143.928.58.465.03.008-1.339-.416-.58-.465zM244.419 438.249c1.044-.07 2.398 1.278.798.639-.05-.018-1.578-.588-.798-.64zM244.489 439.124c-.19.013 4.105.925 2.32 1.045.455-.031-4.666-.889-2.32-1.045zM246.009 440.345c.398-.026-.621.042 0 0zM245.788 440.99c1.05-.068 1.655.777.289.234-.08-.034-.627-.21-.289-.234zM245.495 441.577c-1.575.104 3.59.582 1.886.694.79-.052-4.693-.51-1.886-.694zM257.38 451.116c.447-.029 1.426.096 1.164.114-.447.029-1.424-.096-1.164-.114zM245.49 442.396c.984-.065 2.037 1.216.433.348-.21-.115-.95-.315-.434-.348zM245.414 443.154c.982-.062 2.035 1.216.434.351-.213-.114-.951-.317-.434-.35zM245.26 443.858c1.048-.07 2.402 1.276.798.64-.049-.021-1.574-.59-.797-.64zM245.476 444.851c-.483.031 4.59 1.084 2.539 1.216.85-.054-5.062-1.05-2.539-1.216zM246.269 446.309c-.442.028 4.537 1.024 2.468 1.159.785-.052-5.087-.988-2.468-1.16zM249.309 449.57c-1.577.104 3.594.582 1.886.696.79-.052-4.69-.512-1.886-.696zM452.723 261.549c-.22-.159-1.697-1.008-1.7-.956.066-1.32 1.058-2.31 1.1-2.401.218-.447 1.424-2.796.927-2.175-.618.772-1.195-.652-1.582-1.102-.61-.704-1.203 1.255-1.866 1.302-3.284.231-6.42-2.315-10.65-2.097-2.513.13-5.38.278-8.118 1.92-.759.457-2.624 4.498-2.669 5.374.029-.595.476 3.887.484 3.497.005-.262-.232.878-.172 1.237.574 3.396 1.323-.626 2.04-1.518.896-1.117 1.85.089 2.806-.42 2.853-1.536 5.597.106 8.365.841 2.83.76 6.854 2.726 9.816-.964.12-.148 1.466-1.197 1.45-2.83 0-.072-.213.302-.231.292zm-1.76-.884c.032.445-.093 1.424-.11 1.162-.03-.447.095-1.427.11-1.162zm-.584-.298c.029.449-.096 1.429-.112 1.166-.03-.447.094-1.426.112-1.166zM449.145 244.493c.029.447-.096 1.424-.112 1.164-.03-.447.094-1.424.112-1.164zM447.978 244.924c.125-.106.24-.366.348-.436.653-.421-.072 2.489-.348.436zM447.978 244.924c-2.315-.626-4.427 3.329-6.26-.4-.049-.104-.16-.291-.062-.946.375-2.476 1.086.904 1.526 1.175 1.491.904 3.469-2.035 4.796.171zM427.991 261.632c.026.395-.041-.621 0 0zM441.537 242.705c.08 1.206-.928 2.141-.465.58-.008.03.415-1.339.465-.58zM440.892 242.482c.07 1.044-1.278 2.398-.639.797.018-.046.587-1.574.64-.797zM440.017 242.552c-.013-.19-.925 4.108-1.045 2.323.031.452.889-4.667 1.045-2.323zM438.796 244.074c.026.398-.042-.62 0 0zM438.151 243.851c.068 1.05-.777 1.655-.234.288.034-.08.21-.623.234-.288zM437.564 243.557c-.104-1.574-.582 3.594-.694 1.89.052.79.51-4.696.694-1.89zM428.025 255.445c.029.447-.096 1.427-.112 1.164-.03-.447.094-1.426.112-1.164zM436.745 243.552c.065.985-1.216 2.037-.348.434.115-.21.315-.948.348-.434zM435.987 243.477c.065.985-1.216 2.034-.351.434.114-.21.317-.951.35-.434zM435.282 243.326c.07 1.045-1.275 2.398-.639.798.021-.05.59-1.575.64-.798zM434.29 243.54c-.031-.481-1.081 4.59-1.216 2.54.054.848 1.05-5.064 1.216-2.54zM432.832 244.332c-.028-.442-1.024 4.537-1.159 2.468.052.788.988-5.085 1.16-2.468zM429.571 247.372c-.104-1.577-.582 3.596-.694 1.889.052.79.51-4.693.694-1.89zM84.941 261.549c-.22-.159-1.696-1.008-1.699-.956.065-1.32 1.058-2.31 1.1-2.401.217-.447 1.423-2.796.927-2.175-.619.772-1.195-.652-1.583-1.102-.61-.704-1.203 1.255-1.865 1.302-3.285.231-6.421-2.315-10.651-2.097-2.513.13-5.379.278-8.118 1.92-.758.457-2.624 4.498-2.668 5.374.028-.595.475 3.887.483 3.497.005-.262-.231.878-.171 1.237.574 3.396 1.322-.626 2.04-1.518.896-1.117 1.852.089 2.806-.42 2.853-1.536 5.597.106 8.364.841 2.832.76 6.855 2.726 9.817-.964.12-.148 1.465-1.197 1.45-2.83 0-.072-.213.302-.232.292zm-1.759-.884c.031.445-.093 1.424-.111 1.162-.03-.447.096-1.427.111-1.162zm-.584-.298c.028.449-.097 1.429-.112 1.166-.031-.447.093-1.426.112-1.166zM81.363 244.493c.029.447-.096 1.424-.111 1.164-.029-.447.093-1.424.111-1.164zM80.197 244.924c.124-.106.239-.366.348-.436.652-.421-.073 2.489-.348.436zM80.197 244.924c-2.315-.626-4.428 3.329-6.26-.4-.05-.104-.161-.291-.062-.946.374-2.476 1.086.904 1.525 1.175 1.492.904 3.471-2.035 4.797.171zM60.21 261.632c.026.395-.042-.621 0 0zM73.755 242.705c.08 1.206-.927 2.141-.465.58-.008.03.416-1.339.465-.58zM73.11 242.482c.071 1.044-1.278 2.398-.638.797.018-.046.59-1.574.639-.797zM72.235 242.552c-.013-.19-.925 4.108-1.044 2.323.03.452.888-4.667 1.044-2.323zM71.014 244.074c.026.398-.042-.62 0 0zM70.37 243.851c.067 1.05-.777 1.655-.234.288.033-.08.21-.623.233-.288zM69.782 243.557c-.101-1.574-.58 3.594-.694 1.89.052.79.51-4.696.694-1.89zM60.243 255.445c.03.447-.096 1.427-.111 1.164-.031-.447.093-1.426.111-1.164zM68.964 243.552c.065.985-1.216 2.037-.348.434.114-.21.314-.948.348-.434zM68.205 243.477c.065.985-1.216 2.034-.35.434.114-.21.316-.951.35-.434zM67.5 243.326c.071 1.045-1.275 2.398-.638.798.02-.05.59-1.575.639-.798zM66.508 243.54c-.03-.481-1.08 4.59-1.216 2.54.055.848 1.05-5.064 1.216-2.54zM65.05 244.332c-.028-.442-1.023 4.537-1.158 2.468.052.788.987-5.085 1.159-2.468zM61.79 247.372c-.104-1.577-.582 3.596-.694 1.889.052.79.51-4.693.694-1.89zM324.065 125.818l-8.026 15.544c-.93-1.151 2.351-10.874 2.448-11.308.506-2.222 3.44-14.487 1.915-9.58-1.902 6.119-5.626 10.936-7.671 14.392-3.214 5.438-3.918 11.794-6.667 18.03-13.611 30.88-29.15 59.267-46.754 99.007-1.003 2.259-2.016 4.548-3.167 7.144a.552.552 0 0 0 .275.73l.232.049c23.648-.132 50.175-.395 75.642-1.881 7.808-.458 26.982-4.495 27.423-5.374-.3.598-4.874-3.884-4.952-3.495-.055.26 2.37-.88 1.751-1.236-5.893-3.4-13.605.623-20.974 1.517-9.217 1.117-19.026-.09-28.83.421-16.985.889-33.587.712-50.06.262l8.421 13.016c5.244-10.773 10.498-21.575 15.723-32.314 12.615-26.247 31.355-63.178 40.462-92.467.364-1.17 5.075-14.226 3.524-14.759-.068-.023-.626 2.13-.715 2.302zm-8.205 16.118c.53-.09.899 1.476.587 1.53-.53.092-.902-1.475-.587-1.53zm-2.74 5.374c.533-.091.905 1.476.593 1.53-.532.094-.901-1.476-.592-1.53zM293.446 152.377c.532-.091.899 1.475.587 1.53-.53.091-.9-1.476-.587-1.53zM288.922 163.503l1.07-3.45c2.367-6.3 1.97 1.69-1.07 3.45zM288.922 163.503c-10.316 21.445-15.606 42.882-26.712 58.519-.312.439-.946 1.393-1.128.195-.683-4.524 5.39-9.791 7.492-13.819 7.109-13.618 12.755-33.368 20.348-44.895zM361.508 252.353c-.267-.395.421.621 0 0zM259.778 222.988c1.434-.25-1.954 9.586-1.43 4.602 0 0 .526-4.443 1.43-4.602zM256.863 228.936c1.244-.213-3.191 12.969-1.965 6.33.037-.203 1.04-6.166 1.965-6.33zM253.235 237.189c-.223.039-.148 10.36-2.273 10.731.54-.093-.515-10.245 2.273-10.731zM249.48 249.266c.473-.08-.74.13 0 0zM257.073 270.134c-.707-1.05 7.977-1.653 2.393-.288-.335.08-2.164.626-2.393.288zM263.099 270.428c1.063 1.577 5.979-3.591 7.132-1.887-.535-.79-5.235 4.693-7.132 1.887zM361.168 258.542c-.304-.446.974-1.426 1.151-1.164.304.447-.977 1.427-1.151 1.164zM271.512 270.435c-.667-.987 12.499-2.037 3.586-.436-1.172.21-3.237.95-3.586.436zM279.326 270.508c-.663-.982 12.5-2.034 3.588-.434-1.174.213-3.237.954-3.588.434zM286.547 270.661c-.707-1.047 13.135-2.398 6.576-.797-.2.05-6.051 1.574-6.576.797zM296.756 270.446c.322.483 11.126-4.589 12.514-2.539-.574-.85-10.81 5.064-12.514 2.539zM311.746 269.656c.299.439 10.519-4.54 11.917-2.471-.53-.785-10.145 5.087-11.917 2.47zM345.276 266.613c1.065 1.577 5.982-3.593 7.135-1.886-.535-.79-5.238 4.69-7.135 1.886z"></path>
  </g>
</svg>
