<svg xmlns="http://www.w3.org/2000/svg" enable-background="new 0 0 64 64" viewBox="0 0 64 64" id="email">
  <path d="M55.66,9.19H8.34C3.74,9.19,0,12.94,0,17.54v28.93c0,4.6,3.74,8.34,8.34,8.34h47.31c4.6,0,8.34-3.74,8.34-8.34V17.54
		C64,12.94,60.26,9.19,55.66,9.19z M8.34,11.7h47.31c1.1,0,2.13,0.32,3.01,0.86L32,37.52L5.34,12.55C6.22,12.02,7.24,11.7,8.34,11.7
		z M2.5,46.46V17.54c0-1.21,0.37-2.33,1-3.27l23.91,22.39l-1.2-1.13L4.04,50.38C3.09,49.34,2.5,47.97,2.5,46.46z M55.66,52.3H8.34
		c-0.74,0-1.43-0.15-2.08-0.4l21.82-14.62L31,40.01c0,0,0,0,0,0l0,0h0c0.26,0.25,0.61,0.41,1,0.41c0.39,0,0.74-0.16,0.99-0.41h0
		l2.92-2.73l21.82,14.62C57.09,52.15,56.39,52.3,55.66,52.3z M61.5,46.46c0,1.51-0.59,2.88-1.54,3.92L37.79,35.53L60.5,14.27
		c0.63,0.93,1,2.06,1,3.27V46.46z"></path>
</svg>
