<svg xmlns="http://www.w3.org/2000/svg" width="24" height="24" fill="none" viewBox="0 0 24 24" id="x">
  <path fill="#363636" fill-rule="evenodd" d="M3.45672 6.7039C3 7.80653 3 9.20435 3 12C3 14.7956 3 16.1935 3.45672 17.2961C4.06569 18.7663 5.23373 19.9343 6.7039 20.5433C7.80653 21 9.20435 21 12 21C14.7956 21 16.1935 21 17.2961 20.5433C18.7663 19.9343 19.9343 18.7663 20.5433 17.2961C21 16.1935 21 14.7956 21 12C21 9.20435 21 7.80653 20.5433 6.7039C19.9343 5.23373 18.7663 4.06569 17.2961 3.45672C16.1935 3 14.7956 3 12 3C9.20435 3 7.80653 3 6.7039 3.45672C5.23373 4.06569 4.06569 5.23373 3.45672 6.7039ZM12.8566 15.8157L11.269 13.4761L8.3174 17.018C8.05222 17.3363 7.5793 17.3792 7.26109 17.1141C6.94288 16.8489 6.89989 16.376 7.16506 16.0578L10.3926 12.1847L7.54874 7.99367C7.093 7.32205 6.86513 6.98625 6.99668 6.72403C7.00001 6.71739 7.00349 6.71082 7.00712 6.70433C7.15023 6.44824 7.55605 6.44824 8.3677 6.44824C9.38408 6.44824 9.89226 6.44824 10.3244 6.67173C10.3363 6.67788 10.3481 6.68414 10.3599 6.69052C10.7875 6.92264 11.0728 7.34315 11.6435 8.18418L12.5784 9.56182L14.798 6.8983C15.0631 6.58009 15.5361 6.5371 15.8543 6.80227C16.1725 7.06744 16.2155 7.54037 15.9503 7.85857L13.4547 10.8533L16.9514 16.0063C17.4071 16.6779 17.635 17.0137 17.5034 17.2759C17.5001 17.2825 17.4966 17.2891 17.493 17.2956C17.3499 17.5517 16.9441 17.5517 16.1324 17.5517C15.116 17.5517 14.6078 17.5517 14.1757 17.3282C14.1638 17.3221 14.152 17.3158 14.1402 17.3094C13.7126 17.0773 13.4273 16.6568 12.8566 15.8157Z" clip-rule="evenodd"></path>
</svg>
